%TF.GenerationSoftware,KiCad,Pcbnew,7.0.7*%
%TF.CreationDate,2024-04-28T08:46:17+01:00*%
%TF.ProjectId,LRF45,4c524634-352e-46b6-9963-61645f706362,rev?*%
%TF.SameCoordinates,Original*%
%TF.FileFunction,Legend,Bot*%
%TF.FilePolarity,Positive*%
%FSLAX46Y46*%
G04 Gerber Fmt 4.6, Leading zero omitted, Abs format (unit mm)*
G04 Created by KiCad (PCBNEW 7.0.7) date 2024-04-28 08:46:17*
%MOMM*%
%LPD*%
G01*
G04 APERTURE LIST*
%ADD10C,0.300000*%
G04 APERTURE END LIST*
D10*
G36*
X145815526Y-111290000D02*
G01*
X145815526Y-108288743D01*
X145386880Y-108288743D01*
X145386880Y-111290000D01*
X145815526Y-111290000D01*
G37*
G36*
X145006594Y-111290000D02*
G01*
X144418946Y-111290000D01*
X144372466Y-111289218D01*
X144327366Y-111286874D01*
X144283646Y-111282967D01*
X144241305Y-111277497D01*
X144200344Y-111270465D01*
X144160762Y-111261870D01*
X144122560Y-111251712D01*
X144085737Y-111239991D01*
X144050295Y-111226707D01*
X144016231Y-111211861D01*
X143983548Y-111195452D01*
X143952243Y-111177480D01*
X143922319Y-111157945D01*
X143893774Y-111136848D01*
X143866609Y-111114188D01*
X143840823Y-111089965D01*
X143816511Y-111064093D01*
X143793768Y-111036487D01*
X143772593Y-111007146D01*
X143752987Y-110976071D01*
X143734949Y-110943261D01*
X143718480Y-110908717D01*
X143703579Y-110872439D01*
X143690247Y-110834426D01*
X143678484Y-110794678D01*
X143668288Y-110753196D01*
X143659662Y-110709979D01*
X143652603Y-110665028D01*
X143647114Y-110618342D01*
X143643192Y-110569922D01*
X143640840Y-110519767D01*
X143640454Y-110494256D01*
X144068702Y-110494256D01*
X144068985Y-110517583D01*
X144070473Y-110551093D01*
X144073235Y-110582825D01*
X144077273Y-110612779D01*
X144084641Y-110649954D01*
X144094275Y-110683969D01*
X144106176Y-110714823D01*
X144120344Y-110742518D01*
X144141242Y-110772693D01*
X144145875Y-110778148D01*
X144172025Y-110802824D01*
X144196525Y-110819448D01*
X144224209Y-110833301D01*
X144255075Y-110844383D01*
X144289124Y-110852695D01*
X144326356Y-110858236D01*
X144356368Y-110860574D01*
X144388171Y-110861353D01*
X144577948Y-110861353D01*
X144577948Y-108717390D01*
X144388171Y-108717390D01*
X144376924Y-108717483D01*
X144344505Y-108718878D01*
X144314070Y-108721948D01*
X144276575Y-108728645D01*
X144242606Y-108738320D01*
X144212163Y-108750971D01*
X144185247Y-108766598D01*
X144161857Y-108785203D01*
X144137578Y-108812644D01*
X144129237Y-108824766D01*
X144114171Y-108850846D01*
X144101256Y-108879377D01*
X144090494Y-108910358D01*
X144081885Y-108943788D01*
X144075428Y-108979669D01*
X144071123Y-109018000D01*
X144069307Y-109048356D01*
X144068702Y-109080090D01*
X144068702Y-110494256D01*
X143640454Y-110494256D01*
X143640055Y-110467878D01*
X143640055Y-109063970D01*
X143640794Y-109018283D01*
X143643009Y-108973913D01*
X143646701Y-108930860D01*
X143651871Y-108889123D01*
X143658517Y-108848703D01*
X143666640Y-108809599D01*
X143676240Y-108771812D01*
X143687316Y-108735341D01*
X143699870Y-108700188D01*
X143713901Y-108666350D01*
X143729408Y-108633830D01*
X143746393Y-108602626D01*
X143764854Y-108572739D01*
X143784792Y-108544168D01*
X143806207Y-108516914D01*
X143829099Y-108490976D01*
X143853322Y-108466487D01*
X143878913Y-108443578D01*
X143905873Y-108422249D01*
X143934200Y-108402500D01*
X143963896Y-108384330D01*
X143994959Y-108367741D01*
X144027391Y-108352731D01*
X144061191Y-108339302D01*
X144096359Y-108327452D01*
X144132895Y-108317182D01*
X144170800Y-108308493D01*
X144210072Y-108301383D01*
X144250713Y-108295853D01*
X144292722Y-108291903D01*
X144336099Y-108289533D01*
X144380844Y-108288743D01*
X145006594Y-108288743D01*
X145006594Y-111290000D01*
G37*
G36*
X143218736Y-111290000D02*
G01*
X143218736Y-108288743D01*
X141952581Y-108288743D01*
X141952581Y-108717390D01*
X142790090Y-108717390D01*
X142790090Y-109548304D01*
X142046371Y-109548304D01*
X142046371Y-109976950D01*
X142790090Y-109976950D01*
X142790090Y-110861353D01*
X141952581Y-110861353D01*
X141952581Y-111290000D01*
X143218736Y-111290000D01*
G37*
G36*
X141665352Y-111290000D02*
G01*
X141665352Y-108288743D01*
X141257222Y-108288743D01*
X140593370Y-110097117D01*
X140593370Y-108288743D01*
X140164724Y-108288743D01*
X140164724Y-111290000D01*
X140564061Y-111290000D01*
X141236706Y-109486022D01*
X141236706Y-111290000D01*
X141665352Y-111290000D01*
G37*
G36*
X139479623Y-111290000D02*
G01*
X139479623Y-108717390D01*
X139988869Y-108717390D01*
X139988869Y-108288743D01*
X138582030Y-108288743D01*
X138582030Y-108717390D01*
X139050976Y-108717390D01*
X139050976Y-111290000D01*
X139479623Y-111290000D01*
G37*
G36*
X138362212Y-111290000D02*
G01*
X138362212Y-108288743D01*
X137933565Y-108288743D01*
X137933565Y-111290000D01*
X138362212Y-111290000D01*
G37*
G36*
X137553279Y-111290000D02*
G01*
X136965631Y-111290000D01*
X136919151Y-111289218D01*
X136874051Y-111286874D01*
X136830331Y-111282967D01*
X136787990Y-111277497D01*
X136747029Y-111270465D01*
X136707447Y-111261870D01*
X136669245Y-111251712D01*
X136632423Y-111239991D01*
X136596980Y-111226707D01*
X136562917Y-111211861D01*
X136530233Y-111195452D01*
X136498929Y-111177480D01*
X136469004Y-111157945D01*
X136440459Y-111136848D01*
X136413294Y-111114188D01*
X136387508Y-111089965D01*
X136363197Y-111064093D01*
X136340453Y-111036487D01*
X136319279Y-111007146D01*
X136299672Y-110976071D01*
X136281635Y-110943261D01*
X136265165Y-110908717D01*
X136250265Y-110872439D01*
X136236933Y-110834426D01*
X136225169Y-110794678D01*
X136214974Y-110753196D01*
X136206347Y-110709979D01*
X136199289Y-110665028D01*
X136193799Y-110618342D01*
X136189878Y-110569922D01*
X136187525Y-110519767D01*
X136187140Y-110494256D01*
X136615387Y-110494256D01*
X136615670Y-110517583D01*
X136617158Y-110551093D01*
X136619921Y-110582825D01*
X136623958Y-110612779D01*
X136631326Y-110649954D01*
X136640960Y-110683969D01*
X136652861Y-110714823D01*
X136667029Y-110742518D01*
X136687927Y-110772693D01*
X136692560Y-110778148D01*
X136718710Y-110802824D01*
X136743211Y-110819448D01*
X136770894Y-110833301D01*
X136801760Y-110844383D01*
X136835809Y-110852695D01*
X136873041Y-110858236D01*
X136903054Y-110860574D01*
X136934856Y-110861353D01*
X137124633Y-110861353D01*
X137124633Y-108717390D01*
X136934856Y-108717390D01*
X136923609Y-108717483D01*
X136891190Y-108718878D01*
X136860755Y-108721948D01*
X136823260Y-108728645D01*
X136789291Y-108738320D01*
X136758848Y-108750971D01*
X136731932Y-108766598D01*
X136708542Y-108785203D01*
X136684263Y-108812644D01*
X136675923Y-108824766D01*
X136660856Y-108850846D01*
X136647942Y-108879377D01*
X136637180Y-108910358D01*
X136628570Y-108943788D01*
X136622113Y-108979669D01*
X136617808Y-109018000D01*
X136615992Y-109048356D01*
X136615387Y-109080090D01*
X136615387Y-110494256D01*
X136187140Y-110494256D01*
X136186741Y-110467878D01*
X136186741Y-109063970D01*
X136187479Y-109018283D01*
X136189694Y-108973913D01*
X136193387Y-108930860D01*
X136198556Y-108889123D01*
X136205202Y-108848703D01*
X136213325Y-108809599D01*
X136222925Y-108771812D01*
X136234002Y-108735341D01*
X136246555Y-108700188D01*
X136260586Y-108666350D01*
X136276093Y-108633830D01*
X136293078Y-108602626D01*
X136311539Y-108572739D01*
X136331477Y-108544168D01*
X136352893Y-108516914D01*
X136375785Y-108490976D01*
X136400008Y-108466487D01*
X136425599Y-108443578D01*
X136452558Y-108422249D01*
X136480885Y-108402500D01*
X136510581Y-108384330D01*
X136541645Y-108367741D01*
X136574076Y-108352731D01*
X136607876Y-108339302D01*
X136643044Y-108327452D01*
X136679581Y-108317182D01*
X136717485Y-108308493D01*
X136756758Y-108301383D01*
X136797398Y-108295853D01*
X136839407Y-108291903D01*
X136882784Y-108289533D01*
X136927529Y-108288743D01*
X137553279Y-108288743D01*
X137553279Y-111290000D01*
G37*
G36*
X135765422Y-111290000D02*
G01*
X135765422Y-108288743D01*
X134499267Y-108288743D01*
X134499267Y-108717390D01*
X135336775Y-108717390D01*
X135336775Y-109548304D01*
X134593056Y-109548304D01*
X134593056Y-109976950D01*
X135336775Y-109976950D01*
X135336775Y-110861353D01*
X134499267Y-110861353D01*
X134499267Y-111290000D01*
X135765422Y-111290000D01*
G37*
G36*
X134212037Y-111290000D02*
G01*
X134212037Y-108288743D01*
X133803907Y-108288743D01*
X133253628Y-109878032D01*
X133245568Y-109878032D01*
X132698953Y-108288743D01*
X132282763Y-108288743D01*
X132282763Y-111290000D01*
X132711409Y-111290000D01*
X132711409Y-109464773D01*
X132719469Y-109464773D01*
X133144452Y-110754375D01*
X133359141Y-110754375D01*
X133783391Y-109464773D01*
X133783391Y-111290000D01*
X134212037Y-111290000D01*
G37*
G36*
X131879030Y-111290000D02*
G01*
X131879030Y-110861353D01*
X131450383Y-110861353D01*
X131450383Y-111290000D01*
X131879030Y-111290000D01*
G37*
G36*
X130255303Y-109374647D02*
G01*
X130259817Y-109368100D01*
X130278405Y-109342873D01*
X130297839Y-109319179D01*
X130318121Y-109297020D01*
X130339250Y-109276395D01*
X130366852Y-109252771D01*
X130395779Y-109231544D01*
X130426029Y-109212714D01*
X130457392Y-109196460D01*
X130490114Y-109182961D01*
X130524196Y-109172217D01*
X130559637Y-109164228D01*
X130588969Y-109159820D01*
X130619171Y-109157176D01*
X130650244Y-109156294D01*
X130660149Y-109156347D01*
X130698211Y-109157618D01*
X130733777Y-109160583D01*
X130766847Y-109165243D01*
X130797421Y-109171597D01*
X130832129Y-109181922D01*
X130862938Y-109194895D01*
X130889846Y-109210516D01*
X130910795Y-109223925D01*
X130940060Y-109245553D01*
X130966737Y-109268997D01*
X130990824Y-109294257D01*
X131012323Y-109321333D01*
X131031233Y-109350224D01*
X131047554Y-109380933D01*
X131061287Y-109413457D01*
X131072430Y-109447797D01*
X131080984Y-109483953D01*
X131086950Y-109521926D01*
X131088458Y-109536036D01*
X131091183Y-109567040D01*
X131093519Y-109601753D01*
X131095465Y-109640175D01*
X131096669Y-109671426D01*
X131097655Y-109704764D01*
X131098421Y-109740188D01*
X131098968Y-109777699D01*
X131099297Y-109817297D01*
X131099406Y-109858981D01*
X131099406Y-110661318D01*
X131099390Y-110672193D01*
X131099143Y-110703977D01*
X131098600Y-110734498D01*
X131097415Y-110773230D01*
X131095703Y-110809717D01*
X131093465Y-110843961D01*
X131090700Y-110875961D01*
X131087409Y-110905716D01*
X131082554Y-110939755D01*
X131078031Y-110965080D01*
X131071509Y-110995320D01*
X131064021Y-111023985D01*
X131053760Y-111056305D01*
X131042108Y-111086358D01*
X131029064Y-111114145D01*
X131008132Y-111149762D01*
X130984354Y-111181876D01*
X130957729Y-111210487D01*
X130928257Y-111235594D01*
X130895939Y-111257198D01*
X130860774Y-111275299D01*
X130822763Y-111289896D01*
X130781906Y-111300990D01*
X130753086Y-111306440D01*
X130723001Y-111310333D01*
X130691651Y-111312668D01*
X130659036Y-111313447D01*
X130649225Y-111313384D01*
X130616146Y-111312172D01*
X130585031Y-111309417D01*
X130551875Y-111304379D01*
X130521284Y-111297327D01*
X130503287Y-111291949D01*
X130472517Y-111280557D01*
X130443833Y-111266962D01*
X130417236Y-111251165D01*
X130403025Y-111241984D01*
X130378527Y-111224197D01*
X130355421Y-111204787D01*
X130333705Y-111183754D01*
X130317181Y-111166163D01*
X130295420Y-111142721D01*
X130275590Y-111121106D01*
X130255303Y-111098757D01*
X130255303Y-111290000D01*
X129826657Y-111290000D01*
X129826657Y-110630544D01*
X130255303Y-110630544D01*
X130255360Y-110637737D01*
X130257338Y-110672438D01*
X130262143Y-110705028D01*
X130269774Y-110735507D01*
X130280232Y-110763875D01*
X130293517Y-110790133D01*
X130313189Y-110818855D01*
X130320479Y-110827639D01*
X130344101Y-110850591D01*
X130370350Y-110868443D01*
X130399227Y-110881194D01*
X130430731Y-110888845D01*
X130464863Y-110891395D01*
X130484420Y-110890706D01*
X130514781Y-110886495D01*
X130547530Y-110876389D01*
X130576261Y-110860769D01*
X130600973Y-110839638D01*
X130621667Y-110812993D01*
X130633173Y-110792431D01*
X130645399Y-110764539D01*
X130655227Y-110734213D01*
X130662658Y-110701455D01*
X130667692Y-110666264D01*
X130669993Y-110636360D01*
X130670760Y-110604898D01*
X130670760Y-109833335D01*
X130670380Y-109814876D01*
X130668058Y-109785112D01*
X130662485Y-109751049D01*
X130653873Y-109718789D01*
X130642221Y-109688332D01*
X130627529Y-109659678D01*
X130612159Y-109638147D01*
X130588803Y-109617127D01*
X130560090Y-109601362D01*
X130532068Y-109592239D01*
X130500326Y-109586765D01*
X130464863Y-109584940D01*
X130453718Y-109585192D01*
X130421724Y-109588970D01*
X130391894Y-109597282D01*
X130364228Y-109610128D01*
X130338725Y-109627507D01*
X130315387Y-109649420D01*
X130304649Y-109661813D01*
X130286342Y-109688414D01*
X130272260Y-109717437D01*
X130262403Y-109748882D01*
X130256770Y-109782748D01*
X130255303Y-109812819D01*
X130255303Y-110630544D01*
X129826657Y-110630544D01*
X129826657Y-108288743D01*
X130255303Y-108288743D01*
X130255303Y-109374647D01*
G37*
G36*
X128902635Y-109156620D02*
G01*
X128939046Y-109158333D01*
X128974402Y-109161515D01*
X129008701Y-109166164D01*
X129041945Y-109172282D01*
X129074132Y-109179869D01*
X129105263Y-109188923D01*
X129135338Y-109199446D01*
X129164356Y-109211438D01*
X129192319Y-109224897D01*
X129219225Y-109239825D01*
X129236464Y-109250387D01*
X129261368Y-109267023D01*
X129285125Y-109284613D01*
X129315018Y-109309549D01*
X129342873Y-109336179D01*
X129368690Y-109364503D01*
X129392469Y-109394522D01*
X129414211Y-109426236D01*
X129433914Y-109459644D01*
X129439570Y-109470179D01*
X129452708Y-109497345D01*
X129464414Y-109525692D01*
X129474690Y-109555220D01*
X129483534Y-109585928D01*
X129490947Y-109617816D01*
X129496929Y-109650886D01*
X129498970Y-109664433D01*
X129503496Y-109699026D01*
X129507199Y-109734657D01*
X129509569Y-109763909D01*
X129511412Y-109793825D01*
X129512728Y-109824405D01*
X129513518Y-109855649D01*
X129513782Y-109887557D01*
X129513782Y-110582916D01*
X129513765Y-110590866D01*
X129513370Y-110622293D01*
X129512449Y-110653125D01*
X129511000Y-110683362D01*
X129509025Y-110713003D01*
X129505816Y-110749217D01*
X129501784Y-110784501D01*
X129496929Y-110818855D01*
X129494708Y-110832313D01*
X129488153Y-110865107D01*
X129480168Y-110896685D01*
X129470751Y-110927046D01*
X129459903Y-110956190D01*
X129447624Y-110984118D01*
X129433914Y-111010830D01*
X129419328Y-111036045D01*
X129398096Y-111068182D01*
X129374826Y-111098624D01*
X129349518Y-111127372D01*
X129322173Y-111154426D01*
X129292789Y-111179785D01*
X129269414Y-111197693D01*
X129244893Y-111214647D01*
X129219225Y-111230648D01*
X129201405Y-111240675D01*
X129173794Y-111254502D01*
X129145128Y-111266873D01*
X129115405Y-111277789D01*
X129084626Y-111287249D01*
X129052791Y-111295254D01*
X129019900Y-111301803D01*
X128985952Y-111306897D01*
X128950949Y-111310536D01*
X128914889Y-111312719D01*
X128877773Y-111313447D01*
X128841595Y-111312668D01*
X128806332Y-111310333D01*
X128771986Y-111306440D01*
X128738555Y-111300990D01*
X128706040Y-111293984D01*
X128674441Y-111285420D01*
X128643758Y-111275299D01*
X128613991Y-111263621D01*
X128585197Y-111250581D01*
X128557434Y-111236373D01*
X128530700Y-111220997D01*
X128504998Y-111204453D01*
X128480325Y-111186742D01*
X128456683Y-111167863D01*
X128434072Y-111147816D01*
X128412491Y-111126601D01*
X128391728Y-111104840D01*
X128372305Y-111082237D01*
X128354222Y-111058792D01*
X128337478Y-111034506D01*
X128322073Y-111009379D01*
X128308008Y-110983410D01*
X128295283Y-110956599D01*
X128283897Y-110928948D01*
X128273851Y-110900454D01*
X128265144Y-110871119D01*
X128257776Y-110840943D01*
X128251748Y-110809925D01*
X128247060Y-110778066D01*
X128243711Y-110745365D01*
X128241702Y-110711822D01*
X128241032Y-110677438D01*
X128669678Y-110677438D01*
X128672966Y-110698980D01*
X128680154Y-110729199D01*
X128690357Y-110759488D01*
X128703576Y-110789846D01*
X128717306Y-110815924D01*
X128728469Y-110832067D01*
X128749978Y-110852246D01*
X128777206Y-110867581D01*
X128810153Y-110878074D01*
X128841978Y-110883119D01*
X128877773Y-110884801D01*
X128912129Y-110882946D01*
X128943753Y-110877382D01*
X128972647Y-110868108D01*
X129002906Y-110852601D01*
X129029448Y-110832044D01*
X129036192Y-110825183D01*
X129056367Y-110798421D01*
X129069419Y-110772077D01*
X129078555Y-110742590D01*
X129083776Y-110709961D01*
X129085136Y-110680369D01*
X129085136Y-110399002D01*
X128241032Y-110399002D01*
X128241032Y-110070739D01*
X128669678Y-110070739D01*
X129085136Y-110070739D01*
X129085136Y-109828206D01*
X129084265Y-109798588D01*
X129080731Y-109764302D01*
X129074477Y-109733057D01*
X129063383Y-109699578D01*
X129048373Y-109670478D01*
X129029448Y-109645757D01*
X129022244Y-109638392D01*
X128998811Y-109619149D01*
X128972647Y-109604183D01*
X128943753Y-109593492D01*
X128912129Y-109587078D01*
X128877773Y-109584940D01*
X128865932Y-109585178D01*
X128832298Y-109588741D01*
X128801498Y-109596581D01*
X128773531Y-109608697D01*
X128748398Y-109625089D01*
X128726099Y-109645757D01*
X128722627Y-109649573D01*
X128704115Y-109675024D01*
X128689569Y-109704854D01*
X128680478Y-109733057D01*
X128674141Y-109764302D01*
X128670560Y-109798588D01*
X128669678Y-109828206D01*
X128669678Y-110070739D01*
X128241032Y-110070739D01*
X128241032Y-109815750D01*
X128241688Y-109780679D01*
X128243654Y-109746358D01*
X128246931Y-109712787D01*
X128251519Y-109679966D01*
X128257419Y-109647895D01*
X128264628Y-109616573D01*
X128273149Y-109586002D01*
X128282981Y-109556181D01*
X128294124Y-109527109D01*
X128306577Y-109498787D01*
X128320342Y-109471216D01*
X128335417Y-109444394D01*
X128351803Y-109418322D01*
X128369500Y-109393000D01*
X128388508Y-109368427D01*
X128408827Y-109344605D01*
X128430271Y-109323219D01*
X128452837Y-109303023D01*
X128476524Y-109284018D01*
X128501334Y-109266203D01*
X128527266Y-109249579D01*
X128554320Y-109234146D01*
X128582495Y-109219904D01*
X128611793Y-109206852D01*
X128642075Y-109195003D01*
X128673205Y-109184733D01*
X128705181Y-109176043D01*
X128738005Y-109168934D01*
X128771677Y-109163404D01*
X128806195Y-109159454D01*
X128841561Y-109157084D01*
X128877773Y-109156294D01*
X128902635Y-109156620D01*
G37*
G36*
X127169783Y-109792302D02*
G01*
X127171143Y-109761269D01*
X127176363Y-109727334D01*
X127185500Y-109697006D01*
X127198551Y-109670284D01*
X127218727Y-109643667D01*
X127225471Y-109636964D01*
X127250320Y-109616693D01*
X127276782Y-109601401D01*
X127304856Y-109591088D01*
X127334544Y-109585753D01*
X127352233Y-109584940D01*
X127383016Y-109587181D01*
X127415478Y-109595461D01*
X127444224Y-109609842D01*
X127469254Y-109630323D01*
X127484856Y-109648688D01*
X127503129Y-109677168D01*
X127516913Y-109707472D01*
X127526210Y-109739599D01*
X127530606Y-109768587D01*
X127531751Y-109793768D01*
X127529433Y-109825742D01*
X127522477Y-109857369D01*
X127512402Y-109885190D01*
X127502442Y-109905875D01*
X127482155Y-109932711D01*
X127459546Y-109951997D01*
X127430600Y-109970561D01*
X127401638Y-109985481D01*
X127368275Y-109999899D01*
X127353698Y-110005526D01*
X127106769Y-110104445D01*
X127077940Y-110115876D01*
X127050257Y-110127823D01*
X127023718Y-110140285D01*
X126986057Y-110159945D01*
X126950972Y-110180763D01*
X126918463Y-110202741D01*
X126888530Y-110225877D01*
X126861173Y-110250173D01*
X126836392Y-110275628D01*
X126814187Y-110302243D01*
X126794557Y-110330016D01*
X126782903Y-110349176D01*
X126767058Y-110378560D01*
X126752772Y-110408458D01*
X126740044Y-110438872D01*
X126728875Y-110469801D01*
X126719265Y-110501246D01*
X126711212Y-110533205D01*
X126704719Y-110565680D01*
X126699784Y-110598670D01*
X126696407Y-110632175D01*
X126694589Y-110666196D01*
X126694242Y-110689162D01*
X126695009Y-110721322D01*
X126697311Y-110752955D01*
X126701146Y-110784062D01*
X126706516Y-110814642D01*
X126713419Y-110844695D01*
X126721857Y-110874222D01*
X126731829Y-110903222D01*
X126743335Y-110931695D01*
X126756158Y-110959470D01*
X126770080Y-110986375D01*
X126785101Y-111012410D01*
X126801221Y-111037575D01*
X126818440Y-111061869D01*
X126836758Y-111085293D01*
X126856175Y-111107848D01*
X126876692Y-111129532D01*
X126898651Y-111150564D01*
X126921663Y-111170427D01*
X126945729Y-111189123D01*
X126970847Y-111206652D01*
X126997020Y-111223012D01*
X127024245Y-111238205D01*
X127052524Y-111252230D01*
X127081856Y-111265087D01*
X127111875Y-111276421D01*
X127142581Y-111286244D01*
X127173973Y-111294556D01*
X127206053Y-111301357D01*
X127238820Y-111306646D01*
X127272274Y-111310424D01*
X127306414Y-111312691D01*
X127341242Y-111313447D01*
X127373880Y-111312797D01*
X127405848Y-111310848D01*
X127437146Y-111307599D01*
X127467775Y-111303051D01*
X127497734Y-111297204D01*
X127527023Y-111290057D01*
X127555642Y-111281610D01*
X127583592Y-111271864D01*
X127610871Y-111260819D01*
X127637482Y-111248474D01*
X127663422Y-111234830D01*
X127688692Y-111219887D01*
X127713293Y-111203643D01*
X127737224Y-111186101D01*
X127760485Y-111167259D01*
X127783077Y-111147117D01*
X127805070Y-111126143D01*
X127825987Y-111103886D01*
X127845828Y-111080348D01*
X127864593Y-111055526D01*
X127882282Y-111029423D01*
X127898894Y-111002037D01*
X127914430Y-110973369D01*
X127928890Y-110943419D01*
X127941770Y-110912198D01*
X127952933Y-110879717D01*
X127962378Y-110845977D01*
X127970106Y-110810978D01*
X127976117Y-110774720D01*
X127980410Y-110737202D01*
X127982986Y-110698424D01*
X127983791Y-110668515D01*
X127983845Y-110658387D01*
X127553733Y-110658387D01*
X127548203Y-110689050D01*
X127540406Y-110718941D01*
X127530343Y-110748058D01*
X127518012Y-110776403D01*
X127503415Y-110803974D01*
X127498046Y-110812993D01*
X127479163Y-110837397D01*
X127455490Y-110856751D01*
X127427025Y-110871056D01*
X127393769Y-110880313D01*
X127362396Y-110884169D01*
X127341974Y-110884801D01*
X127310968Y-110882714D01*
X127281146Y-110876454D01*
X127252510Y-110866022D01*
X127225058Y-110851416D01*
X127198792Y-110832637D01*
X127190300Y-110825450D01*
X127167390Y-110801544D01*
X127149221Y-110774342D01*
X127135791Y-110743842D01*
X127127102Y-110710045D01*
X127123481Y-110679362D01*
X127122889Y-110659853D01*
X127124486Y-110628555D01*
X127129277Y-110598956D01*
X127138904Y-110566574D01*
X127152879Y-110536506D01*
X127168318Y-110512575D01*
X127187981Y-110490086D01*
X127212900Y-110468783D01*
X127237679Y-110451935D01*
X127266108Y-110435910D01*
X127298187Y-110420708D01*
X127326477Y-110409139D01*
X127333914Y-110406329D01*
X127535415Y-110333056D01*
X127571899Y-110318686D01*
X127606890Y-110303054D01*
X127640387Y-110286160D01*
X127672389Y-110268003D01*
X127702898Y-110248585D01*
X127731912Y-110227904D01*
X127759432Y-110205961D01*
X127785458Y-110182755D01*
X127809990Y-110158287D01*
X127833028Y-110132557D01*
X127847557Y-110114703D01*
X127867723Y-110086947D01*
X127885905Y-110058082D01*
X127902104Y-110028111D01*
X127916319Y-109997031D01*
X127928551Y-109964844D01*
X127938799Y-109931549D01*
X127947064Y-109897147D01*
X127953345Y-109861637D01*
X127957642Y-109825019D01*
X127959956Y-109787293D01*
X127960397Y-109761528D01*
X127959619Y-109729036D01*
X127957283Y-109697139D01*
X127953391Y-109665838D01*
X127947941Y-109635132D01*
X127940934Y-109605022D01*
X127932370Y-109575506D01*
X127922250Y-109546586D01*
X127910572Y-109518262D01*
X127897531Y-109490544D01*
X127883323Y-109463811D01*
X127867948Y-109438062D01*
X127851404Y-109413299D01*
X127833692Y-109389519D01*
X127814813Y-109366724D01*
X127794766Y-109344914D01*
X127773551Y-109324089D01*
X127746979Y-109299603D01*
X127719012Y-109276977D01*
X127689649Y-109256211D01*
X127658891Y-109237306D01*
X127626737Y-109220262D01*
X127600010Y-109207966D01*
X127579378Y-109199525D01*
X127551088Y-109189393D01*
X127522271Y-109180611D01*
X127492928Y-109173181D01*
X127463058Y-109167102D01*
X127432661Y-109162373D01*
X127401738Y-109158996D01*
X127370287Y-109156969D01*
X127338311Y-109156294D01*
X127306368Y-109157038D01*
X127275021Y-109159271D01*
X127244270Y-109162992D01*
X127214113Y-109168201D01*
X127184552Y-109174898D01*
X127155587Y-109183084D01*
X127127216Y-109192759D01*
X127099441Y-109203921D01*
X127072456Y-109216412D01*
X127046456Y-109230071D01*
X127015340Y-109248786D01*
X126985762Y-109269326D01*
X126957723Y-109291691D01*
X126931223Y-109315880D01*
X126911130Y-109336545D01*
X126891873Y-109358653D01*
X126873669Y-109381745D01*
X126856519Y-109405822D01*
X126840422Y-109430884D01*
X126825378Y-109456930D01*
X126811387Y-109483961D01*
X126798450Y-109511976D01*
X126786566Y-109540976D01*
X126775919Y-109570709D01*
X126766691Y-109600923D01*
X126758883Y-109631617D01*
X126752494Y-109662793D01*
X126747525Y-109694449D01*
X126743976Y-109726586D01*
X126741847Y-109759204D01*
X126741137Y-109792302D01*
X127169783Y-109792302D01*
G37*
G36*
X126436322Y-111290000D02*
G01*
X126436322Y-109179741D01*
X126007676Y-109179741D01*
X126007676Y-111290000D01*
X126436322Y-111290000D01*
G37*
G36*
X126436322Y-108717390D02*
G01*
X126436322Y-108288743D01*
X126007676Y-108288743D01*
X126007676Y-108717390D01*
X126436322Y-108717390D01*
G37*
G36*
X125221747Y-109156347D02*
G01*
X125259460Y-109157618D01*
X125294699Y-109160583D01*
X125327466Y-109165243D01*
X125357760Y-109171597D01*
X125392149Y-109181922D01*
X125422675Y-109194895D01*
X125449337Y-109210516D01*
X125470019Y-109223925D01*
X125498917Y-109245553D01*
X125525266Y-109268997D01*
X125549063Y-109294257D01*
X125570311Y-109321333D01*
X125589009Y-109350224D01*
X125605156Y-109380933D01*
X125618753Y-109413457D01*
X125629800Y-109447797D01*
X125638296Y-109483953D01*
X125644242Y-109521926D01*
X125645751Y-109536036D01*
X125648476Y-109567040D01*
X125650811Y-109601753D01*
X125652757Y-109640175D01*
X125653962Y-109671426D01*
X125654947Y-109704764D01*
X125655713Y-109740188D01*
X125656261Y-109777699D01*
X125656589Y-109817297D01*
X125656699Y-109858981D01*
X125656699Y-110661318D01*
X125656682Y-110672193D01*
X125656435Y-110703977D01*
X125655892Y-110734498D01*
X125654707Y-110773230D01*
X125652996Y-110809717D01*
X125650757Y-110843961D01*
X125647993Y-110875961D01*
X125644701Y-110905716D01*
X125639846Y-110939755D01*
X125635324Y-110965080D01*
X125628801Y-110995320D01*
X125621313Y-111023985D01*
X125611052Y-111056305D01*
X125599400Y-111086358D01*
X125586357Y-111114145D01*
X125565425Y-111149762D01*
X125541646Y-111181876D01*
X125515021Y-111210487D01*
X125485549Y-111235594D01*
X125453231Y-111257198D01*
X125418067Y-111275299D01*
X125380056Y-111289896D01*
X125339198Y-111300990D01*
X125310379Y-111306440D01*
X125280294Y-111310333D01*
X125248944Y-111312668D01*
X125216329Y-111313447D01*
X125208255Y-111313392D01*
X125176587Y-111312069D01*
X125145927Y-111308984D01*
X125116274Y-111304135D01*
X125087629Y-111297524D01*
X125053240Y-111286780D01*
X125020424Y-111273281D01*
X124989183Y-111257027D01*
X124983118Y-111253453D01*
X124953566Y-111234143D01*
X124925301Y-111212437D01*
X124898325Y-111188333D01*
X124877671Y-111167325D01*
X124857841Y-111144782D01*
X124838836Y-111120705D01*
X124820655Y-111095094D01*
X124812595Y-111095094D01*
X124812595Y-111519344D01*
X124813001Y-111538118D01*
X124815481Y-111567978D01*
X124821431Y-111601449D01*
X124830627Y-111632344D01*
X124843070Y-111660663D01*
X124858757Y-111686406D01*
X124864662Y-111694391D01*
X124888890Y-111718284D01*
X124914066Y-111733740D01*
X124943312Y-111744559D01*
X124976629Y-111750741D01*
X125007501Y-111752351D01*
X125027377Y-111751752D01*
X125058472Y-111748092D01*
X125092432Y-111739308D01*
X125122734Y-111725733D01*
X125149379Y-111707366D01*
X125172365Y-111684207D01*
X125188408Y-111662716D01*
X125204070Y-111636406D01*
X125217394Y-111604995D01*
X125225388Y-111572813D01*
X125228053Y-111539860D01*
X125656699Y-111539860D01*
X125653962Y-111563310D01*
X125649214Y-111597466D01*
X125643693Y-111630398D01*
X125637399Y-111662106D01*
X125630332Y-111692591D01*
X125622492Y-111721852D01*
X125613880Y-111749890D01*
X125601195Y-111785370D01*
X125587135Y-111818675D01*
X125571702Y-111849804D01*
X125559243Y-111871904D01*
X125541909Y-111900028D01*
X125523751Y-111926618D01*
X125504769Y-111951674D01*
X125484963Y-111975196D01*
X125464332Y-111997183D01*
X125442877Y-112017637D01*
X125414898Y-112041046D01*
X125403844Y-112050486D01*
X125375659Y-112072532D01*
X125346686Y-112092360D01*
X125316926Y-112109970D01*
X125286379Y-112125362D01*
X125255045Y-112138535D01*
X125222923Y-112149490D01*
X125209946Y-112153305D01*
X125177753Y-112161767D01*
X125145918Y-112168690D01*
X125114441Y-112174074D01*
X125083321Y-112177921D01*
X125052560Y-112180228D01*
X125022156Y-112180997D01*
X125001542Y-112180777D01*
X124971287Y-112179620D01*
X124941830Y-112177471D01*
X124903797Y-112173063D01*
X124867184Y-112166892D01*
X124831990Y-112158958D01*
X124798216Y-112149261D01*
X124765861Y-112137801D01*
X124734926Y-112124577D01*
X124705182Y-112109923D01*
X124676766Y-112094169D01*
X124649678Y-112077316D01*
X124623918Y-112059364D01*
X124599486Y-112040314D01*
X124576382Y-112020163D01*
X124554606Y-111998914D01*
X124534159Y-111976566D01*
X124519576Y-111959749D01*
X124501355Y-111936725D01*
X124480543Y-111906980D01*
X124461914Y-111876161D01*
X124445467Y-111844269D01*
X124431202Y-111811303D01*
X124419120Y-111777264D01*
X124414861Y-111763442D01*
X124405416Y-111728963D01*
X124397688Y-111694592D01*
X124391677Y-111660327D01*
X124387384Y-111626170D01*
X124384808Y-111592121D01*
X124383949Y-111558178D01*
X124383949Y-110656922D01*
X124812595Y-110656922D01*
X124812830Y-110669152D01*
X124816351Y-110704229D01*
X124824096Y-110736884D01*
X124836066Y-110767118D01*
X124852260Y-110794930D01*
X124872679Y-110820321D01*
X124880218Y-110828129D01*
X124904278Y-110848531D01*
X124930502Y-110864399D01*
X124958889Y-110875733D01*
X124989441Y-110882534D01*
X125022156Y-110884801D01*
X125050824Y-110883644D01*
X125083310Y-110878947D01*
X125112075Y-110870635D01*
X125141682Y-110855892D01*
X125165931Y-110835945D01*
X125184822Y-110810795D01*
X125194954Y-110791721D01*
X125207619Y-110761651D01*
X125217245Y-110729829D01*
X125223831Y-110696255D01*
X125226997Y-110666938D01*
X125228053Y-110636406D01*
X125228053Y-109864842D01*
X125227621Y-109841107D01*
X125225703Y-109810842D01*
X125221149Y-109775232D01*
X125214197Y-109742091D01*
X125204849Y-109711419D01*
X125193103Y-109683215D01*
X125178960Y-109657480D01*
X125165610Y-109638933D01*
X125142237Y-109615749D01*
X125114846Y-109598129D01*
X125083436Y-109586074D01*
X125054191Y-109580278D01*
X125022156Y-109578346D01*
X125010487Y-109578629D01*
X124977230Y-109582879D01*
X124946602Y-109592230D01*
X124918601Y-109606682D01*
X124893227Y-109626233D01*
X124870481Y-109650886D01*
X124866920Y-109655462D01*
X124847926Y-109684691D01*
X124835207Y-109711370D01*
X124825314Y-109740161D01*
X124818248Y-109771062D01*
X124814009Y-109804074D01*
X124812595Y-109839197D01*
X124812595Y-110656922D01*
X124383949Y-110656922D01*
X124383949Y-109179741D01*
X124812595Y-109179741D01*
X124812595Y-109370983D01*
X124827854Y-109354179D01*
X124847798Y-109332495D01*
X124869687Y-109309086D01*
X124890997Y-109286720D01*
X124902890Y-109274623D01*
X124925378Y-109254202D01*
X124949258Y-109235520D01*
X124974528Y-109218576D01*
X124988993Y-109209739D01*
X125016383Y-109195455D01*
X125045511Y-109183258D01*
X125076378Y-109173147D01*
X125087156Y-109170135D01*
X125117851Y-109163552D01*
X125147037Y-109159520D01*
X125178398Y-109157100D01*
X125211933Y-109156294D01*
X125221747Y-109156347D01*
G37*
G36*
X124024180Y-111290000D02*
G01*
X124024180Y-109179741D01*
X123595533Y-109179741D01*
X123595533Y-109386371D01*
X123586741Y-109386371D01*
X123569659Y-109361836D01*
X123551753Y-109338423D01*
X123528211Y-109310734D01*
X123503381Y-109284799D01*
X123477264Y-109260617D01*
X123449858Y-109238188D01*
X123427006Y-109221507D01*
X123396444Y-109202720D01*
X123363379Y-109187117D01*
X123335123Y-109176928D01*
X123305264Y-109168776D01*
X123273803Y-109162662D01*
X123240738Y-109158587D01*
X123206071Y-109156549D01*
X123188136Y-109156294D01*
X123158461Y-109157247D01*
X123128785Y-109160106D01*
X123099110Y-109164872D01*
X123069434Y-109171544D01*
X123039759Y-109180122D01*
X123029867Y-109183405D01*
X123000784Y-109194808D01*
X122972886Y-109208684D01*
X122946173Y-109225033D01*
X122920645Y-109243855D01*
X122896301Y-109265150D01*
X122888450Y-109272798D01*
X122865970Y-109297416D01*
X122845242Y-109324558D01*
X122826266Y-109354225D01*
X122811790Y-109380876D01*
X122798531Y-109409280D01*
X122788799Y-109433265D01*
X122778034Y-109464793D01*
X122769093Y-109498467D01*
X122761977Y-109534287D01*
X122757597Y-109564490D01*
X122754386Y-109596066D01*
X122752342Y-109629016D01*
X122751467Y-109663339D01*
X122751430Y-109672135D01*
X122751430Y-111290000D01*
X123180076Y-111290000D01*
X123180076Y-109833335D01*
X123181382Y-109798373D01*
X123185300Y-109765844D01*
X123191829Y-109735748D01*
X123203112Y-109702844D01*
X123218156Y-109673443D01*
X123233565Y-109651618D01*
X123255195Y-109628958D01*
X123279968Y-109610986D01*
X123307883Y-109597703D01*
X123338941Y-109589108D01*
X123373142Y-109585201D01*
X123385240Y-109584940D01*
X123420757Y-109586765D01*
X123452660Y-109592239D01*
X123480949Y-109601362D01*
X123510127Y-109617127D01*
X123534101Y-109638147D01*
X123550104Y-109659678D01*
X123565543Y-109689801D01*
X123575969Y-109718523D01*
X123584176Y-109750537D01*
X123590165Y-109785842D01*
X123593359Y-109816457D01*
X123595134Y-109849178D01*
X123595533Y-109875101D01*
X123595533Y-111290000D01*
X124024180Y-111290000D01*
G37*
G36*
X145862421Y-116330000D02*
G01*
X145862421Y-113328743D01*
X145433775Y-113328743D01*
X145433775Y-115901353D01*
X144596266Y-115901353D01*
X144596266Y-116330000D01*
X145862421Y-116330000D01*
G37*
G36*
X144309036Y-116330000D02*
G01*
X143880390Y-116330000D01*
X143880390Y-115063845D01*
X143620272Y-115063845D01*
X143216538Y-116330000D01*
X142762979Y-116330000D01*
X143225331Y-114976650D01*
X143200078Y-114961987D01*
X143164011Y-114938929D01*
X143130122Y-114914597D01*
X143098409Y-114888989D01*
X143068873Y-114862107D01*
X143041514Y-114833949D01*
X143016332Y-114804516D01*
X142993326Y-114773808D01*
X142972497Y-114741825D01*
X142953844Y-114708566D01*
X142937369Y-114674033D01*
X142922703Y-114638160D01*
X142909479Y-114600883D01*
X142897698Y-114562202D01*
X142887360Y-114522118D01*
X142878464Y-114480629D01*
X142871011Y-114437737D01*
X142866844Y-114408362D01*
X142863317Y-114378363D01*
X142860432Y-114347740D01*
X142858188Y-114316493D01*
X142856585Y-114284622D01*
X142855624Y-114252127D01*
X142855339Y-114222672D01*
X143283949Y-114222672D01*
X143283962Y-114229744D01*
X143284413Y-114264309D01*
X143285508Y-114297550D01*
X143287247Y-114329467D01*
X143289629Y-114360061D01*
X143292656Y-114389331D01*
X143297138Y-114422707D01*
X143301550Y-114449029D01*
X143308213Y-114478773D01*
X143317875Y-114510935D01*
X143329571Y-114540362D01*
X143343300Y-114567055D01*
X143353467Y-114581286D01*
X143373462Y-114604151D01*
X143396263Y-114624422D01*
X143421868Y-114642098D01*
X143450279Y-114657180D01*
X143472718Y-114666257D01*
X143502669Y-114675118D01*
X143535916Y-114681765D01*
X143566141Y-114685611D01*
X143598656Y-114687918D01*
X143633461Y-114688688D01*
X143880390Y-114688688D01*
X143880390Y-113757390D01*
X143653977Y-113757390D01*
X143626420Y-113757850D01*
X143587187Y-113760270D01*
X143550479Y-113764763D01*
X143516296Y-113771329D01*
X143484637Y-113779970D01*
X143455502Y-113790684D01*
X143428892Y-113803471D01*
X143397339Y-113823747D01*
X143370274Y-113847710D01*
X143347697Y-113875359D01*
X143332254Y-113903764D01*
X143319266Y-113934484D01*
X143310087Y-113962657D01*
X143302711Y-113992530D01*
X143297138Y-114024103D01*
X143296327Y-114029487D01*
X143291999Y-114062907D01*
X143289101Y-114092212D01*
X143286847Y-114122842D01*
X143285237Y-114154795D01*
X143284271Y-114188072D01*
X143283949Y-114222672D01*
X142855339Y-114222672D01*
X142855303Y-114219009D01*
X142856046Y-114164236D01*
X142858274Y-114111203D01*
X142861988Y-114059908D01*
X142867187Y-114010353D01*
X142873872Y-113962536D01*
X142882042Y-113916458D01*
X142891698Y-113872118D01*
X142902839Y-113829518D01*
X142915466Y-113788656D01*
X142929578Y-113749533D01*
X142945175Y-113712149D01*
X142962259Y-113676503D01*
X142980827Y-113642597D01*
X143000881Y-113610429D01*
X143022421Y-113580000D01*
X143045446Y-113551310D01*
X143069957Y-113524358D01*
X143095953Y-113499146D01*
X143123434Y-113475672D01*
X143152402Y-113453937D01*
X143182854Y-113433941D01*
X143214792Y-113415683D01*
X143248216Y-113399165D01*
X143283125Y-113384385D01*
X143319520Y-113371344D01*
X143357400Y-113360042D01*
X143396765Y-113350478D01*
X143437616Y-113342654D01*
X143479953Y-113336568D01*
X143523775Y-113332221D01*
X143569082Y-113329613D01*
X143615875Y-113328743D01*
X144309036Y-113328743D01*
X144309036Y-116330000D01*
G37*
G36*
X142521179Y-116330000D02*
G01*
X142521179Y-113328743D01*
X141255024Y-113328743D01*
X141255024Y-113757390D01*
X142092533Y-113757390D01*
X142092533Y-114635198D01*
X141348813Y-114635198D01*
X141348813Y-115063845D01*
X142092533Y-115063845D01*
X142092533Y-116330000D01*
X142521179Y-116330000D01*
G37*
G36*
X140264375Y-116330000D02*
G01*
X140264375Y-115914542D01*
X141108478Y-115914542D01*
X141108478Y-115485896D01*
X140497383Y-113328743D01*
X140046022Y-113328743D01*
X140684228Y-115485896D01*
X140264375Y-115485896D01*
X140264375Y-114641793D01*
X139835729Y-114641793D01*
X139835729Y-115485896D01*
X139607850Y-115485896D01*
X139607850Y-115914542D01*
X139835729Y-115914542D01*
X139835729Y-116330000D01*
X140264375Y-116330000D01*
G37*
G36*
X138179762Y-113328743D02*
G01*
X138179762Y-113757390D01*
X139030460Y-113757390D01*
X139030460Y-114545073D01*
X139007293Y-114523761D01*
X138981757Y-114503788D01*
X138953850Y-114485155D01*
X138923573Y-114467862D01*
X138896532Y-114454473D01*
X138879518Y-114446887D01*
X138849919Y-114435488D01*
X138819283Y-114426022D01*
X138787609Y-114418487D01*
X138754897Y-114412884D01*
X138721148Y-114409213D01*
X138686361Y-114407474D01*
X138672156Y-114407320D01*
X138631805Y-114408485D01*
X138592910Y-114411982D01*
X138555470Y-114417811D01*
X138519485Y-114425970D01*
X138484956Y-114436461D01*
X138451882Y-114449283D01*
X138420264Y-114464436D01*
X138390101Y-114481921D01*
X138361394Y-114501737D01*
X138334142Y-114523884D01*
X138316782Y-114539944D01*
X138292295Y-114565845D01*
X138270217Y-114594091D01*
X138250547Y-114624681D01*
X138233286Y-114657615D01*
X138218433Y-114692894D01*
X138205989Y-114730516D01*
X138195953Y-114770483D01*
X138188326Y-114812793D01*
X138184579Y-114842303D01*
X138181903Y-114872854D01*
X138180297Y-114904448D01*
X138179762Y-114937083D01*
X138179762Y-115710844D01*
X138180587Y-115748064D01*
X138183060Y-115784254D01*
X138187181Y-115819414D01*
X138192951Y-115853543D01*
X138200370Y-115886641D01*
X138209438Y-115918710D01*
X138220154Y-115949748D01*
X138232519Y-115979755D01*
X138246074Y-116008549D01*
X138260729Y-116036313D01*
X138276482Y-116063046D01*
X138293335Y-116088749D01*
X138311287Y-116113421D01*
X138330338Y-116137063D01*
X138350488Y-116159674D01*
X138371737Y-116181256D01*
X138394314Y-116201692D01*
X138417716Y-116220869D01*
X138441942Y-116238786D01*
X138466992Y-116255444D01*
X138492866Y-116270843D01*
X138519565Y-116284982D01*
X138547088Y-116297862D01*
X138575436Y-116309483D01*
X138604356Y-116319787D01*
X138633596Y-116328717D01*
X138663157Y-116336273D01*
X138693039Y-116342456D01*
X138723241Y-116347264D01*
X138753763Y-116350699D01*
X138784607Y-116352760D01*
X138815771Y-116353447D01*
X138847106Y-116352760D01*
X138878098Y-116350699D01*
X138908747Y-116347264D01*
X138939052Y-116342456D01*
X138969014Y-116336273D01*
X138998632Y-116328717D01*
X139027907Y-116319787D01*
X139056838Y-116309483D01*
X139085174Y-116297862D01*
X139112663Y-116284982D01*
X139139305Y-116270843D01*
X139165099Y-116255444D01*
X139190046Y-116238786D01*
X139214146Y-116220869D01*
X139237399Y-116201692D01*
X139259804Y-116181256D01*
X139281236Y-116159663D01*
X139301570Y-116137017D01*
X139320804Y-116113318D01*
X139338939Y-116088565D01*
X139355975Y-116062760D01*
X139371912Y-116035901D01*
X139386749Y-116007988D01*
X139400488Y-115979023D01*
X139412681Y-115949015D01*
X139423248Y-115917977D01*
X139432190Y-115885909D01*
X139439506Y-115852810D01*
X139445196Y-115818681D01*
X139449260Y-115783521D01*
X139451699Y-115747331D01*
X139452512Y-115710111D01*
X139452512Y-115583349D01*
X139030460Y-115583349D01*
X139030460Y-115693258D01*
X139028975Y-115726406D01*
X139024521Y-115757157D01*
X139017097Y-115785511D01*
X139004269Y-115816372D01*
X138987164Y-115843780D01*
X138969644Y-115863984D01*
X138945300Y-115884652D01*
X138918433Y-115901044D01*
X138889041Y-115913160D01*
X138857124Y-115921000D01*
X138822683Y-115924563D01*
X138810642Y-115924801D01*
X138776166Y-115922740D01*
X138744730Y-115916557D01*
X138716334Y-115906253D01*
X138687047Y-115889023D01*
X138661898Y-115866182D01*
X138643720Y-115842526D01*
X138629303Y-115815521D01*
X138618647Y-115785167D01*
X138611752Y-115751465D01*
X138608879Y-115720821D01*
X138608408Y-115701318D01*
X138608408Y-114997899D01*
X138610418Y-114965304D01*
X138616446Y-114934564D01*
X138626492Y-114905678D01*
X138640557Y-114878647D01*
X138658640Y-114853471D01*
X138665561Y-114845491D01*
X138687826Y-114824076D01*
X138712307Y-114807092D01*
X138739003Y-114794538D01*
X138767914Y-114786415D01*
X138799041Y-114782723D01*
X138809909Y-114782477D01*
X138839488Y-114784042D01*
X138869226Y-114789451D01*
X138898137Y-114799865D01*
X138902965Y-114802260D01*
X138929240Y-114817476D01*
X138953752Y-114836053D01*
X138965247Y-114846957D01*
X138985163Y-114870879D01*
X139000029Y-114896485D01*
X139003349Y-114904110D01*
X139018075Y-114930657D01*
X139027529Y-114942944D01*
X139405617Y-114942944D01*
X139405617Y-113328743D01*
X138179762Y-113328743D01*
G37*
G36*
X137063817Y-116330000D02*
G01*
X136476168Y-116330000D01*
X136429689Y-116329218D01*
X136384589Y-116326874D01*
X136340868Y-116322967D01*
X136298528Y-116317497D01*
X136257566Y-116310465D01*
X136217985Y-116301870D01*
X136179783Y-116291712D01*
X136142960Y-116279991D01*
X136107517Y-116266707D01*
X136073454Y-116251861D01*
X136040770Y-116235452D01*
X136009466Y-116217480D01*
X135979542Y-116197945D01*
X135950997Y-116176848D01*
X135923831Y-116154188D01*
X135898046Y-116129965D01*
X135873734Y-116104093D01*
X135850991Y-116076487D01*
X135829816Y-116047146D01*
X135810210Y-116016071D01*
X135792172Y-115983261D01*
X135775703Y-115948717D01*
X135760802Y-115912439D01*
X135747470Y-115874426D01*
X135735706Y-115834678D01*
X135725511Y-115793196D01*
X135716884Y-115749979D01*
X135709826Y-115705028D01*
X135704336Y-115658342D01*
X135700415Y-115609922D01*
X135698062Y-115559767D01*
X135697677Y-115534256D01*
X136125924Y-115534256D01*
X136126207Y-115557583D01*
X136127695Y-115591093D01*
X136130458Y-115622825D01*
X136134496Y-115652779D01*
X136141863Y-115689954D01*
X136151497Y-115723969D01*
X136163398Y-115754823D01*
X136177566Y-115782518D01*
X136198464Y-115812693D01*
X136203097Y-115818148D01*
X136229247Y-115842824D01*
X136253748Y-115859448D01*
X136281431Y-115873301D01*
X136312298Y-115884383D01*
X136346347Y-115892695D01*
X136383578Y-115898236D01*
X136413591Y-115900574D01*
X136445394Y-115901353D01*
X136635170Y-115901353D01*
X136635170Y-113757390D01*
X136445394Y-113757390D01*
X136434147Y-113757483D01*
X136401728Y-113758878D01*
X136371292Y-113761948D01*
X136333797Y-113768645D01*
X136299828Y-113778320D01*
X136269386Y-113790971D01*
X136242469Y-113806598D01*
X136219079Y-113825203D01*
X136194801Y-113852644D01*
X136186460Y-113864766D01*
X136171393Y-113890846D01*
X136158479Y-113919377D01*
X136147717Y-113950358D01*
X136139108Y-113983788D01*
X136132650Y-114019669D01*
X136128346Y-114058000D01*
X136126529Y-114088356D01*
X136125924Y-114120090D01*
X136125924Y-115534256D01*
X135697677Y-115534256D01*
X135697278Y-115507878D01*
X135697278Y-114103970D01*
X135698016Y-114058283D01*
X135700232Y-114013913D01*
X135703924Y-113970860D01*
X135709093Y-113929123D01*
X135715739Y-113888703D01*
X135723862Y-113849599D01*
X135733462Y-113811812D01*
X135744539Y-113775341D01*
X135757093Y-113740188D01*
X135771123Y-113706350D01*
X135786631Y-113673830D01*
X135803615Y-113642626D01*
X135822076Y-113612739D01*
X135842015Y-113584168D01*
X135863430Y-113556914D01*
X135886322Y-113530976D01*
X135910545Y-113506487D01*
X135936136Y-113483578D01*
X135963095Y-113462249D01*
X135991423Y-113442500D01*
X136021118Y-113424330D01*
X136052182Y-113407741D01*
X136084614Y-113392731D01*
X136118414Y-113379302D01*
X136153582Y-113367452D01*
X136190118Y-113357182D01*
X136228022Y-113348493D01*
X136267295Y-113341383D01*
X136307936Y-113335853D01*
X136349944Y-113331903D01*
X136393321Y-113329533D01*
X136438066Y-113328743D01*
X137063817Y-113328743D01*
X137063817Y-116330000D01*
G37*
G36*
X134741708Y-114197038D02*
G01*
X134777337Y-114199271D01*
X134812050Y-114202992D01*
X134845847Y-114208201D01*
X134878729Y-114214898D01*
X134910694Y-114223084D01*
X134941743Y-114232759D01*
X134971877Y-114243921D01*
X135001026Y-114256366D01*
X135029121Y-114269887D01*
X135056163Y-114284485D01*
X135082152Y-114300158D01*
X135107088Y-114316908D01*
X135130970Y-114334734D01*
X135153799Y-114353636D01*
X135175575Y-114373614D01*
X135197048Y-114395739D01*
X135217135Y-114418700D01*
X135235836Y-114442497D01*
X135253153Y-114467129D01*
X135269084Y-114492597D01*
X135283630Y-114518901D01*
X135296790Y-114546040D01*
X135308565Y-114574016D01*
X135318955Y-114602827D01*
X135327960Y-114632474D01*
X135335579Y-114662956D01*
X135341813Y-114694275D01*
X135346662Y-114726429D01*
X135350125Y-114759419D01*
X135352203Y-114793244D01*
X135352896Y-114827906D01*
X134945498Y-114827906D01*
X134941089Y-114809646D01*
X134931851Y-114781103D01*
X134917649Y-114749968D01*
X134900046Y-114722233D01*
X134879043Y-114697898D01*
X134854640Y-114676964D01*
X134845879Y-114670664D01*
X134818874Y-114654204D01*
X134790787Y-114641401D01*
X134761618Y-114632256D01*
X134731367Y-114626769D01*
X134700034Y-114624940D01*
X134670805Y-114626005D01*
X134637586Y-114630330D01*
X134608051Y-114637983D01*
X134577474Y-114651559D01*
X134552204Y-114669926D01*
X134532240Y-114693084D01*
X134521249Y-114710509D01*
X134507510Y-114738794D01*
X134497069Y-114769654D01*
X134489924Y-114803091D01*
X134486490Y-114832922D01*
X134485345Y-114864542D01*
X134485345Y-115076301D01*
X134489541Y-115074793D01*
X134517951Y-115066959D01*
X134548360Y-115063845D01*
X134569208Y-115063845D01*
X134598918Y-115063845D01*
X134615026Y-115063845D01*
X134645080Y-115063845D01*
X134662192Y-115063845D01*
X134691974Y-115063845D01*
X134716884Y-115064016D01*
X134753208Y-115064918D01*
X134788282Y-115066592D01*
X134822107Y-115069040D01*
X134854683Y-115072260D01*
X134886009Y-115076252D01*
X134916086Y-115081018D01*
X134954245Y-115088574D01*
X134990183Y-115097504D01*
X135023900Y-115107808D01*
X135055671Y-115119498D01*
X135085770Y-115132584D01*
X135114198Y-115147067D01*
X135140954Y-115162946D01*
X135166038Y-115180222D01*
X135189451Y-115198896D01*
X135211193Y-115218966D01*
X135231263Y-115240432D01*
X135250279Y-115264211D01*
X135267762Y-115289388D01*
X135283710Y-115315960D01*
X135298124Y-115343930D01*
X135311004Y-115373296D01*
X135322350Y-115404060D01*
X135332162Y-115436220D01*
X135340439Y-115469776D01*
X135343988Y-115486984D01*
X135350400Y-115522430D01*
X135355895Y-115559249D01*
X135360475Y-115597443D01*
X135363308Y-115626989D01*
X135365627Y-115657309D01*
X135367430Y-115688401D01*
X135368718Y-115720266D01*
X135369491Y-115752904D01*
X135369748Y-115786315D01*
X135369577Y-115808134D01*
X135368675Y-115839906D01*
X135367001Y-115870533D01*
X135363566Y-115909585D01*
X135358757Y-115946599D01*
X135352575Y-115981576D01*
X135345019Y-116014514D01*
X135336089Y-116045415D01*
X135325785Y-116074277D01*
X135322965Y-116081187D01*
X135308070Y-116114188D01*
X135291852Y-116144613D01*
X135274310Y-116172463D01*
X135255445Y-116197736D01*
X135235255Y-116220434D01*
X135209281Y-116244270D01*
X135200282Y-116251990D01*
X135173011Y-116273259D01*
X135145327Y-116291694D01*
X135117232Y-116307296D01*
X135088724Y-116320065D01*
X135059804Y-116330000D01*
X135035568Y-116336754D01*
X135006580Y-116343349D01*
X134972890Y-116348959D01*
X134939340Y-116352325D01*
X134905931Y-116353447D01*
X134886783Y-116353204D01*
X134850101Y-116351257D01*
X134815571Y-116347365D01*
X134783193Y-116341526D01*
X134752968Y-116333740D01*
X134724896Y-116324009D01*
X134692832Y-116309107D01*
X134664131Y-116291165D01*
X134653332Y-116283168D01*
X134626409Y-116261322D01*
X134599593Y-116236828D01*
X134578218Y-116215327D01*
X134556912Y-116192132D01*
X134535674Y-116167242D01*
X134514505Y-116140658D01*
X134493405Y-116112379D01*
X134485345Y-116112379D01*
X134485345Y-116330000D01*
X134056699Y-116330000D01*
X134056699Y-115700586D01*
X134485345Y-115700586D01*
X134485886Y-115724925D01*
X134488290Y-115755734D01*
X134494000Y-115791604D01*
X134502716Y-115824541D01*
X134514437Y-115854545D01*
X134529163Y-115881614D01*
X134546894Y-115905750D01*
X134567098Y-115926647D01*
X134594506Y-115947049D01*
X134625367Y-115962351D01*
X134653721Y-115971206D01*
X134684472Y-115976519D01*
X134717620Y-115978290D01*
X134743277Y-115977088D01*
X134773319Y-115972204D01*
X134806395Y-115961385D01*
X134836225Y-115945156D01*
X134862810Y-115923518D01*
X134882484Y-115901353D01*
X134892960Y-115886385D01*
X134908129Y-115859634D01*
X134920437Y-115830629D01*
X134929882Y-115799370D01*
X134936465Y-115765856D01*
X134940186Y-115730089D01*
X134941102Y-115699853D01*
X134941005Y-115689014D01*
X134939556Y-115657778D01*
X134934920Y-115619115D01*
X134927192Y-115583864D01*
X134916372Y-115552025D01*
X134902462Y-115523597D01*
X134885461Y-115498582D01*
X134865368Y-115476978D01*
X134842184Y-115458785D01*
X134816813Y-115443158D01*
X134790160Y-115429614D01*
X134762225Y-115418153D01*
X134733007Y-115408777D01*
X134702507Y-115401484D01*
X134670725Y-115396274D01*
X134637661Y-115393149D01*
X134603314Y-115392107D01*
X134578356Y-115392931D01*
X134546664Y-115395829D01*
X134515283Y-115400157D01*
X134485345Y-115405296D01*
X134485345Y-115700586D01*
X134056699Y-115700586D01*
X134056699Y-114862344D01*
X134056899Y-114841627D01*
X134057951Y-114811175D01*
X134059904Y-114781469D01*
X134063912Y-114743024D01*
X134069521Y-114705907D01*
X134076734Y-114670117D01*
X134085550Y-114635656D01*
X134095968Y-114602523D01*
X134107990Y-114570718D01*
X134121167Y-114540218D01*
X134135421Y-114511001D01*
X134150751Y-114483066D01*
X134167158Y-114456413D01*
X134184640Y-114431042D01*
X134203199Y-114406953D01*
X134222833Y-114384147D01*
X134243545Y-114362623D01*
X134266179Y-114342565D01*
X134289752Y-114323789D01*
X134314264Y-114306295D01*
X134339715Y-114290083D01*
X134366105Y-114275154D01*
X134393433Y-114261507D01*
X134421701Y-114249142D01*
X134450907Y-114238060D01*
X134480846Y-114228271D01*
X134511311Y-114219787D01*
X134542303Y-114212609D01*
X134573822Y-114206735D01*
X134605867Y-114202167D01*
X134638439Y-114198904D01*
X134671538Y-114196947D01*
X134705163Y-114196294D01*
X134741708Y-114197038D01*
G37*
G36*
X132449825Y-114219741D02*
G01*
X132449825Y-116330000D01*
X132878471Y-116330000D01*
X132878471Y-116123370D01*
X132886531Y-116123370D01*
X132903624Y-116148077D01*
X132921565Y-116171639D01*
X132945182Y-116199481D01*
X132970122Y-116225534D01*
X132996387Y-116249799D01*
X133023975Y-116272274D01*
X133046999Y-116288967D01*
X133077560Y-116307543D01*
X133110626Y-116322970D01*
X133138882Y-116333045D01*
X133168741Y-116341105D01*
X133200202Y-116347150D01*
X133233266Y-116351180D01*
X133267934Y-116353195D01*
X133285868Y-116353447D01*
X133315544Y-116352519D01*
X133345219Y-116349737D01*
X133374895Y-116345101D01*
X133404570Y-116338609D01*
X133434246Y-116330263D01*
X133444138Y-116327069D01*
X133473221Y-116315665D01*
X133501119Y-116301789D01*
X133527832Y-116285440D01*
X133553360Y-116266618D01*
X133577703Y-116245324D01*
X133585554Y-116237676D01*
X133608034Y-116213058D01*
X133628762Y-116185915D01*
X133647739Y-116156248D01*
X133662215Y-116129598D01*
X133675474Y-116101194D01*
X133685205Y-116077208D01*
X133695971Y-116045470D01*
X133704912Y-116011620D01*
X133712028Y-115975660D01*
X133716407Y-115945372D01*
X133719619Y-115913733D01*
X133721662Y-115880743D01*
X133722538Y-115846402D01*
X133722575Y-115837606D01*
X133722575Y-114219741D01*
X133293928Y-114219741D01*
X133293928Y-115676406D01*
X133292622Y-115711386D01*
X133288705Y-115743968D01*
X133282175Y-115774154D01*
X133270892Y-115807213D01*
X133255849Y-115836820D01*
X133240439Y-115858855D01*
X133218784Y-115881266D01*
X133193934Y-115899041D01*
X133165890Y-115912178D01*
X133134651Y-115920679D01*
X133100219Y-115924543D01*
X133088032Y-115924801D01*
X133052533Y-115922994D01*
X133020684Y-115917574D01*
X132992484Y-115908540D01*
X132963461Y-115892929D01*
X132939693Y-115872115D01*
X132923900Y-115850795D01*
X132908462Y-115820424D01*
X132898036Y-115791533D01*
X132889829Y-115759387D01*
X132883839Y-115723985D01*
X132880645Y-115693319D01*
X132878871Y-115660570D01*
X132878471Y-115634640D01*
X132878471Y-114219741D01*
X132449825Y-114219741D01*
G37*
G36*
X131655104Y-114196347D02*
G01*
X131692816Y-114197618D01*
X131728056Y-114200583D01*
X131760823Y-114205243D01*
X131791116Y-114211597D01*
X131825506Y-114221922D01*
X131856032Y-114234895D01*
X131882693Y-114250516D01*
X131903376Y-114263925D01*
X131932274Y-114285553D01*
X131958622Y-114308997D01*
X131982420Y-114334257D01*
X132003668Y-114361333D01*
X132022365Y-114390224D01*
X132038512Y-114420933D01*
X132052109Y-114453457D01*
X132063156Y-114487797D01*
X132071653Y-114523953D01*
X132077599Y-114561926D01*
X132079107Y-114576036D01*
X132081832Y-114607040D01*
X132084168Y-114641753D01*
X132086114Y-114680175D01*
X132087318Y-114711426D01*
X132088304Y-114744764D01*
X132089070Y-114780188D01*
X132089617Y-114817699D01*
X132089946Y-114857297D01*
X132090055Y-114898981D01*
X132090055Y-115701318D01*
X132090039Y-115712193D01*
X132089792Y-115743977D01*
X132089249Y-115774498D01*
X132088064Y-115813230D01*
X132086352Y-115849717D01*
X132084114Y-115883961D01*
X132081349Y-115915961D01*
X132078058Y-115945716D01*
X132073203Y-115979755D01*
X132068680Y-116005080D01*
X132062158Y-116035320D01*
X132054670Y-116063985D01*
X132044409Y-116096305D01*
X132032757Y-116126358D01*
X132019713Y-116154145D01*
X131998781Y-116189762D01*
X131975003Y-116221876D01*
X131948378Y-116250487D01*
X131918906Y-116275594D01*
X131886588Y-116297198D01*
X131851423Y-116315299D01*
X131813412Y-116329896D01*
X131772555Y-116340990D01*
X131743735Y-116346440D01*
X131713650Y-116350333D01*
X131682300Y-116352668D01*
X131649685Y-116353447D01*
X131641611Y-116353392D01*
X131609944Y-116352069D01*
X131579283Y-116348984D01*
X131549631Y-116344135D01*
X131520986Y-116337524D01*
X131486596Y-116326780D01*
X131453781Y-116313281D01*
X131422540Y-116297027D01*
X131416475Y-116293453D01*
X131386922Y-116274143D01*
X131358658Y-116252437D01*
X131331681Y-116228333D01*
X131311028Y-116207325D01*
X131291198Y-116184782D01*
X131272193Y-116160705D01*
X131254012Y-116135094D01*
X131245952Y-116135094D01*
X131245952Y-116559344D01*
X131246358Y-116578118D01*
X131248837Y-116607978D01*
X131254788Y-116641449D01*
X131263984Y-116672344D01*
X131276426Y-116700663D01*
X131292114Y-116726406D01*
X131298019Y-116734391D01*
X131322247Y-116758284D01*
X131347423Y-116773740D01*
X131376669Y-116784559D01*
X131409985Y-116790741D01*
X131440858Y-116792351D01*
X131460734Y-116791752D01*
X131491828Y-116788092D01*
X131525789Y-116779308D01*
X131556091Y-116765733D01*
X131582735Y-116747366D01*
X131605722Y-116724207D01*
X131621765Y-116702716D01*
X131637427Y-116676406D01*
X131650750Y-116644995D01*
X131658744Y-116612813D01*
X131661409Y-116579860D01*
X132090055Y-116579860D01*
X132087319Y-116603310D01*
X132082571Y-116637466D01*
X132077049Y-116670398D01*
X132070755Y-116702106D01*
X132063689Y-116732591D01*
X132055849Y-116761852D01*
X132047237Y-116789890D01*
X132034551Y-116825370D01*
X132020492Y-116858675D01*
X132005059Y-116889804D01*
X131992600Y-116911904D01*
X131975266Y-116940028D01*
X131957108Y-116966618D01*
X131938126Y-116991674D01*
X131918319Y-117015196D01*
X131897688Y-117037183D01*
X131876233Y-117057637D01*
X131848255Y-117081046D01*
X131837201Y-117090486D01*
X131809015Y-117112532D01*
X131780042Y-117132360D01*
X131750283Y-117149970D01*
X131719735Y-117165362D01*
X131688401Y-117178535D01*
X131656280Y-117189490D01*
X131643303Y-117193305D01*
X131611110Y-117201767D01*
X131579275Y-117208690D01*
X131547798Y-117214074D01*
X131516678Y-117217921D01*
X131485916Y-117220228D01*
X131455512Y-117220997D01*
X131434899Y-117220777D01*
X131404644Y-117219620D01*
X131375187Y-117217471D01*
X131337154Y-117213063D01*
X131300540Y-117206892D01*
X131265346Y-117198958D01*
X131231572Y-117189261D01*
X131199218Y-117177801D01*
X131168283Y-117164577D01*
X131138539Y-117149923D01*
X131110122Y-117134169D01*
X131083034Y-117117316D01*
X131057274Y-117099364D01*
X131032843Y-117080314D01*
X131009739Y-117060163D01*
X130987963Y-117038914D01*
X130967515Y-117016566D01*
X130952933Y-116999749D01*
X130934712Y-116976725D01*
X130913900Y-116946980D01*
X130895271Y-116916161D01*
X130878824Y-116884269D01*
X130864559Y-116851303D01*
X130852477Y-116817264D01*
X130848218Y-116803442D01*
X130838773Y-116768963D01*
X130831045Y-116734592D01*
X130825034Y-116700327D01*
X130820741Y-116666170D01*
X130818165Y-116632121D01*
X130817306Y-116598178D01*
X130817306Y-115696922D01*
X131245952Y-115696922D01*
X131246187Y-115709152D01*
X131249707Y-115744229D01*
X131257452Y-115776884D01*
X131269422Y-115807118D01*
X131285617Y-115834930D01*
X131306036Y-115860321D01*
X131313575Y-115868129D01*
X131337635Y-115888531D01*
X131363858Y-115904399D01*
X131392246Y-115915733D01*
X131422797Y-115922534D01*
X131455512Y-115924801D01*
X131484180Y-115923644D01*
X131516667Y-115918947D01*
X131545432Y-115910635D01*
X131575039Y-115895892D01*
X131599287Y-115875945D01*
X131618178Y-115850795D01*
X131628310Y-115831721D01*
X131640976Y-115801651D01*
X131650601Y-115769829D01*
X131657187Y-115736255D01*
X131660354Y-115706938D01*
X131661409Y-115676406D01*
X131661409Y-114904842D01*
X131660978Y-114881107D01*
X131659060Y-114850842D01*
X131654505Y-114815232D01*
X131647554Y-114782091D01*
X131638205Y-114751419D01*
X131626459Y-114723215D01*
X131612316Y-114697480D01*
X131598967Y-114678933D01*
X131575594Y-114655749D01*
X131548203Y-114638129D01*
X131516793Y-114626074D01*
X131487548Y-114620278D01*
X131455512Y-114618346D01*
X131443843Y-114618629D01*
X131410587Y-114622879D01*
X131379958Y-114632230D01*
X131351957Y-114646682D01*
X131326584Y-114666233D01*
X131303838Y-114690886D01*
X131300276Y-114695462D01*
X131281283Y-114724691D01*
X131268564Y-114751370D01*
X131258671Y-114780161D01*
X131251605Y-114811062D01*
X131247365Y-114844074D01*
X131245952Y-114879197D01*
X131245952Y-115696922D01*
X130817306Y-115696922D01*
X130817306Y-114219741D01*
X131245952Y-114219741D01*
X131245952Y-114410983D01*
X131261211Y-114394179D01*
X131281155Y-114372495D01*
X131303044Y-114349086D01*
X131324354Y-114326720D01*
X131336247Y-114314623D01*
X131358735Y-114294202D01*
X131382615Y-114275520D01*
X131407885Y-114258576D01*
X131422350Y-114249739D01*
X131449739Y-114235455D01*
X131478867Y-114223258D01*
X131509734Y-114213147D01*
X131520513Y-114210135D01*
X131551207Y-114203552D01*
X131580394Y-114199520D01*
X131611755Y-114197100D01*
X131645289Y-114196294D01*
X131655104Y-114196347D01*
G37*
G36*
X130457536Y-116330000D02*
G01*
X130457536Y-113328743D01*
X130028890Y-113328743D01*
X130028890Y-114427103D01*
X130020097Y-114427103D01*
X130003015Y-114402397D01*
X129985109Y-114378835D01*
X129961568Y-114350993D01*
X129936738Y-114324939D01*
X129910620Y-114300675D01*
X129883214Y-114278199D01*
X129860362Y-114261507D01*
X129829801Y-114242720D01*
X129796735Y-114227117D01*
X129768479Y-114216928D01*
X129738621Y-114208776D01*
X129707159Y-114202662D01*
X129674095Y-114198587D01*
X129639428Y-114196549D01*
X129621493Y-114196294D01*
X129591817Y-114197247D01*
X129562142Y-114200106D01*
X129532466Y-114204872D01*
X129502791Y-114211544D01*
X129473115Y-114220122D01*
X129463224Y-114223405D01*
X129434140Y-114234808D01*
X129406242Y-114248684D01*
X129379529Y-114265033D01*
X129354001Y-114283855D01*
X129329658Y-114305150D01*
X129321807Y-114312798D01*
X129299327Y-114337416D01*
X129278599Y-114364558D01*
X129259622Y-114394225D01*
X129245147Y-114420876D01*
X129231887Y-114449280D01*
X129222156Y-114473265D01*
X129211390Y-114504793D01*
X129202449Y-114538467D01*
X129195333Y-114574287D01*
X129190954Y-114604490D01*
X129187743Y-114636066D01*
X129185699Y-114669016D01*
X129184823Y-114703339D01*
X129184787Y-114712135D01*
X129184787Y-116330000D01*
X129613433Y-116330000D01*
X129613433Y-114873335D01*
X129614739Y-114838373D01*
X129618656Y-114805844D01*
X129625186Y-114775748D01*
X129636469Y-114742844D01*
X129651513Y-114713443D01*
X129666922Y-114691618D01*
X129688552Y-114668958D01*
X129713324Y-114650986D01*
X129741240Y-114637703D01*
X129772298Y-114629108D01*
X129806498Y-114625201D01*
X129818597Y-114624940D01*
X129854113Y-114626765D01*
X129886016Y-114632239D01*
X129914306Y-114641362D01*
X129943483Y-114657127D01*
X129967457Y-114678147D01*
X129983461Y-114699678D01*
X129998900Y-114729801D01*
X130009325Y-114758523D01*
X130017533Y-114790537D01*
X130023522Y-114825842D01*
X130026716Y-114856457D01*
X130028491Y-114889178D01*
X130028890Y-114915101D01*
X130028890Y-116330000D01*
X130457536Y-116330000D01*
G37*
G36*
X128831612Y-114219741D02*
G01*
X128831612Y-113539769D01*
X128402965Y-113539769D01*
X128402965Y-114219741D01*
X128168492Y-114219741D01*
X128168492Y-114548004D01*
X128402965Y-114548004D01*
X128402965Y-115696922D01*
X128402334Y-115727722D01*
X128400067Y-115759057D01*
X128395546Y-115789383D01*
X128389776Y-115811960D01*
X128377617Y-115839403D01*
X128359329Y-115862854D01*
X128347278Y-115872777D01*
X128320813Y-115886786D01*
X128290237Y-115895474D01*
X128274738Y-115897690D01*
X128243009Y-115899776D01*
X128213315Y-115900838D01*
X128180258Y-115901321D01*
X128168492Y-115901353D01*
X128168492Y-116330000D01*
X128337752Y-116330000D01*
X128372202Y-116329290D01*
X128405209Y-116327160D01*
X128436774Y-116323611D01*
X128466896Y-116318642D01*
X128495575Y-116312254D01*
X128529396Y-116302272D01*
X128560963Y-116290072D01*
X128572958Y-116284570D01*
X128601355Y-116269537D01*
X128627927Y-116253286D01*
X128652675Y-116235820D01*
X128675598Y-116217136D01*
X128700696Y-116193111D01*
X128723168Y-116167334D01*
X128743269Y-116140037D01*
X128761258Y-116111452D01*
X128777135Y-116081579D01*
X128790899Y-116050418D01*
X128802551Y-116017969D01*
X128805966Y-116006866D01*
X128814681Y-115973301D01*
X128821594Y-115940199D01*
X128826703Y-115907561D01*
X128830009Y-115875387D01*
X128831511Y-115843677D01*
X128831612Y-115833210D01*
X128831612Y-114548004D01*
X129059490Y-114548004D01*
X129059490Y-114219741D01*
X128831612Y-114219741D01*
G37*
G36*
X127404938Y-114196620D02*
G01*
X127441349Y-114198333D01*
X127476705Y-114201515D01*
X127511004Y-114206164D01*
X127544248Y-114212282D01*
X127576435Y-114219869D01*
X127607566Y-114228923D01*
X127637640Y-114239446D01*
X127666659Y-114251438D01*
X127694621Y-114264897D01*
X127721528Y-114279825D01*
X127738767Y-114290387D01*
X127763670Y-114307023D01*
X127787428Y-114324613D01*
X127817321Y-114349549D01*
X127845176Y-114376179D01*
X127870993Y-114404503D01*
X127894772Y-114434522D01*
X127916514Y-114466236D01*
X127936217Y-114499644D01*
X127941873Y-114510179D01*
X127955011Y-114537345D01*
X127966717Y-114565692D01*
X127976992Y-114595220D01*
X127985837Y-114625928D01*
X127993250Y-114657816D01*
X127999232Y-114690886D01*
X128001273Y-114704433D01*
X128005799Y-114739026D01*
X128009502Y-114774657D01*
X128011871Y-114803909D01*
X128013715Y-114833825D01*
X128015031Y-114864405D01*
X128015821Y-114895649D01*
X128016085Y-114927557D01*
X128016085Y-115622916D01*
X128016068Y-115630866D01*
X128015673Y-115662293D01*
X128014752Y-115693125D01*
X128013303Y-115723362D01*
X128011328Y-115753003D01*
X128008119Y-115789217D01*
X128004087Y-115824501D01*
X127999232Y-115858855D01*
X127997011Y-115872313D01*
X127990456Y-115905107D01*
X127982471Y-115936685D01*
X127973054Y-115967046D01*
X127962206Y-115996190D01*
X127949927Y-116024118D01*
X127936217Y-116050830D01*
X127921631Y-116076045D01*
X127900399Y-116108182D01*
X127877129Y-116138624D01*
X127851821Y-116167372D01*
X127824475Y-116194426D01*
X127795092Y-116219785D01*
X127771717Y-116237693D01*
X127747195Y-116254647D01*
X127721528Y-116270648D01*
X127703708Y-116280675D01*
X127676097Y-116294502D01*
X127647431Y-116306873D01*
X127617708Y-116317789D01*
X127586929Y-116327249D01*
X127555094Y-116335254D01*
X127522203Y-116341803D01*
X127488255Y-116346897D01*
X127453252Y-116350536D01*
X127417192Y-116352719D01*
X127380076Y-116353447D01*
X127343898Y-116352668D01*
X127308635Y-116350333D01*
X127274289Y-116346440D01*
X127240858Y-116340990D01*
X127208343Y-116333984D01*
X127176744Y-116325420D01*
X127146061Y-116315299D01*
X127116294Y-116303621D01*
X127087500Y-116290581D01*
X127059737Y-116276373D01*
X127033003Y-116260997D01*
X127007301Y-116244453D01*
X126982628Y-116226742D01*
X126958986Y-116207863D01*
X126936375Y-116187816D01*
X126914794Y-116166601D01*
X126894031Y-116144840D01*
X126874608Y-116122237D01*
X126856525Y-116098792D01*
X126839781Y-116074506D01*
X126824376Y-116049379D01*
X126810311Y-116023410D01*
X126797586Y-115996599D01*
X126786200Y-115968948D01*
X126776153Y-115940454D01*
X126767447Y-115911119D01*
X126760079Y-115880943D01*
X126754051Y-115849925D01*
X126749363Y-115818066D01*
X126746014Y-115785365D01*
X126744005Y-115751822D01*
X126743335Y-115717438D01*
X127171981Y-115717438D01*
X127175269Y-115738980D01*
X127182457Y-115769199D01*
X127192660Y-115799488D01*
X127205879Y-115829846D01*
X127219609Y-115855924D01*
X127230771Y-115872067D01*
X127252281Y-115892246D01*
X127279509Y-115907581D01*
X127312456Y-115918074D01*
X127344281Y-115923119D01*
X127380076Y-115924801D01*
X127414431Y-115922946D01*
X127446056Y-115917382D01*
X127474950Y-115908108D01*
X127505209Y-115892601D01*
X127531751Y-115872044D01*
X127538494Y-115865183D01*
X127558670Y-115838421D01*
X127571722Y-115812077D01*
X127580858Y-115782590D01*
X127586079Y-115749961D01*
X127587438Y-115720369D01*
X127587438Y-115439002D01*
X126743335Y-115439002D01*
X126743335Y-115110739D01*
X127171981Y-115110739D01*
X127587438Y-115110739D01*
X127587438Y-114868206D01*
X127586568Y-114838588D01*
X127583033Y-114804302D01*
X127576780Y-114773057D01*
X127565686Y-114739578D01*
X127550676Y-114710478D01*
X127531751Y-114685757D01*
X127524547Y-114678392D01*
X127501114Y-114659149D01*
X127474950Y-114644183D01*
X127446056Y-114633492D01*
X127414431Y-114627078D01*
X127380076Y-114624940D01*
X127368235Y-114625178D01*
X127334601Y-114628741D01*
X127303801Y-114636581D01*
X127275834Y-114648697D01*
X127250701Y-114665089D01*
X127228401Y-114685757D01*
X127224930Y-114689573D01*
X127206417Y-114715024D01*
X127191872Y-114744854D01*
X127182781Y-114773057D01*
X127176444Y-114804302D01*
X127172863Y-114838588D01*
X127171981Y-114868206D01*
X127171981Y-115110739D01*
X126743335Y-115110739D01*
X126743335Y-114855750D01*
X126743991Y-114820679D01*
X126745957Y-114786358D01*
X126749234Y-114752787D01*
X126753822Y-114719966D01*
X126759721Y-114687895D01*
X126766931Y-114656573D01*
X126775452Y-114626002D01*
X126785284Y-114596181D01*
X126796426Y-114567109D01*
X126808880Y-114538787D01*
X126822644Y-114511216D01*
X126837720Y-114484394D01*
X126854106Y-114458322D01*
X126871803Y-114433000D01*
X126890811Y-114408427D01*
X126911130Y-114384605D01*
X126932574Y-114363219D01*
X126955140Y-114343023D01*
X126978827Y-114324018D01*
X127003637Y-114306203D01*
X127029569Y-114289579D01*
X127056622Y-114274146D01*
X127084798Y-114259904D01*
X127114096Y-114246852D01*
X127144378Y-114235003D01*
X127175508Y-114224733D01*
X127207484Y-114216043D01*
X127240308Y-114208934D01*
X127273979Y-114203404D01*
X127308498Y-114199454D01*
X127343863Y-114197084D01*
X127380076Y-114196294D01*
X127404938Y-114196620D01*
G37*
G36*
X126415806Y-116330000D02*
G01*
X126415806Y-114219741D01*
X125987159Y-114219741D01*
X125987159Y-114447620D01*
X125963162Y-114426082D01*
X125939254Y-114405434D01*
X125915437Y-114385674D01*
X125891710Y-114366802D01*
X125868073Y-114348820D01*
X125836697Y-114326225D01*
X125805482Y-114305211D01*
X125774427Y-114285776D01*
X125743532Y-114267922D01*
X125735833Y-114263705D01*
X125703983Y-114247906D01*
X125670346Y-114234213D01*
X125634923Y-114222626D01*
X125597714Y-114213147D01*
X125568635Y-114207419D01*
X125538552Y-114202877D01*
X125507464Y-114199520D01*
X125475371Y-114197347D01*
X125442274Y-114196360D01*
X125431018Y-114196294D01*
X125431018Y-114649853D01*
X125462068Y-114638954D01*
X125493667Y-114631168D01*
X125525815Y-114626497D01*
X125558513Y-114624940D01*
X125587855Y-114626027D01*
X125618179Y-114629288D01*
X125649485Y-114634723D01*
X125681772Y-114642331D01*
X125700662Y-114647655D01*
X125728724Y-114657255D01*
X125755754Y-114669018D01*
X125781755Y-114682946D01*
X125806725Y-114699037D01*
X125830665Y-114717293D01*
X125838415Y-114723859D01*
X125862295Y-114745351D01*
X125884474Y-114769162D01*
X125904953Y-114795291D01*
X125923732Y-114823739D01*
X125940811Y-114854505D01*
X125946127Y-114865275D01*
X125957947Y-114893543D01*
X125967765Y-114923850D01*
X125975579Y-114956197D01*
X125981389Y-114990583D01*
X125985196Y-115027009D01*
X125986799Y-115057617D01*
X125987159Y-115081430D01*
X125987159Y-116330000D01*
X126415806Y-116330000D01*
G37*
G36*
X124469678Y-116330000D02*
G01*
X124041032Y-116330000D01*
X124041032Y-116135826D01*
X124026156Y-116152880D01*
X124006201Y-116174816D01*
X123981063Y-116200948D01*
X123955711Y-116225649D01*
X123930144Y-116248919D01*
X123904363Y-116270757D01*
X123878367Y-116291165D01*
X123867639Y-116298707D01*
X123838316Y-116315433D01*
X123805414Y-116329118D01*
X123776517Y-116337876D01*
X123745331Y-116344688D01*
X123711854Y-116349554D01*
X123676088Y-116352474D01*
X123638032Y-116353447D01*
X123621743Y-116353252D01*
X123590075Y-116351695D01*
X123559621Y-116348581D01*
X123516215Y-116340990D01*
X123475540Y-116329896D01*
X123437596Y-116315299D01*
X123402382Y-116297198D01*
X123369899Y-116275594D01*
X123340146Y-116250487D01*
X123313124Y-116221876D01*
X123288832Y-116189762D01*
X123267271Y-116154145D01*
X123256305Y-116131147D01*
X123244421Y-116101471D01*
X123233928Y-116069529D01*
X123226247Y-116041179D01*
X123219531Y-116011254D01*
X123213782Y-115979755D01*
X123211741Y-115966560D01*
X123207215Y-115931119D01*
X123204187Y-115900241D01*
X123201685Y-115867120D01*
X123199710Y-115831754D01*
X123198262Y-115794145D01*
X123197521Y-115764465D01*
X123197077Y-115733523D01*
X123196929Y-115701318D01*
X123196929Y-115639769D01*
X123625575Y-115639769D01*
X123626007Y-115663374D01*
X123627924Y-115693485D01*
X123632479Y-115728933D01*
X123639431Y-115761949D01*
X123648779Y-115792532D01*
X123660525Y-115820682D01*
X123674668Y-115846399D01*
X123687846Y-115864774D01*
X123711004Y-115887743D01*
X123738232Y-115905200D01*
X123769531Y-115917144D01*
X123798722Y-115922887D01*
X123830739Y-115924801D01*
X123842411Y-115924520D01*
X123875710Y-115920313D01*
X123906433Y-115911056D01*
X123934581Y-115896751D01*
X123960152Y-115877397D01*
X123983147Y-115852993D01*
X123986708Y-115848418D01*
X124005702Y-115819223D01*
X124018421Y-115792612D01*
X124028313Y-115763925D01*
X124035379Y-115733163D01*
X124039619Y-115700327D01*
X124041032Y-115665415D01*
X124041032Y-114851353D01*
X124040798Y-114839215D01*
X124037277Y-114804413D01*
X124029532Y-114772033D01*
X124017562Y-114742074D01*
X124001368Y-114714536D01*
X123980949Y-114689420D01*
X123973321Y-114681612D01*
X123949029Y-114661210D01*
X123922625Y-114645342D01*
X123894109Y-114634008D01*
X123863480Y-114627207D01*
X123830739Y-114624940D01*
X123802243Y-114626097D01*
X123769939Y-114630794D01*
X123741321Y-114639105D01*
X123711843Y-114653849D01*
X123687671Y-114673795D01*
X123668806Y-114698946D01*
X123658674Y-114717848D01*
X123646009Y-114747704D01*
X123636383Y-114779363D01*
X123629797Y-114812825D01*
X123626631Y-114842088D01*
X123625575Y-114872602D01*
X123625575Y-115639769D01*
X123196929Y-115639769D01*
X123196929Y-114898981D01*
X123196941Y-114884854D01*
X123197124Y-114843866D01*
X123197525Y-114804964D01*
X123198145Y-114768149D01*
X123198985Y-114733420D01*
X123200043Y-114700778D01*
X123201320Y-114670222D01*
X123203364Y-114632727D01*
X123205797Y-114598941D01*
X123209385Y-114561926D01*
X123212957Y-114535639D01*
X123218711Y-114504584D01*
X123225895Y-114475532D01*
X123236405Y-114443315D01*
X123248976Y-114413983D01*
X123263607Y-114387536D01*
X123270419Y-114377298D01*
X123288552Y-114352679D01*
X123308258Y-114329456D01*
X123329539Y-114307628D01*
X123352393Y-114287195D01*
X123376822Y-114268158D01*
X123402826Y-114250516D01*
X123413719Y-114243950D01*
X123443308Y-114229388D01*
X123476259Y-114217474D01*
X123505041Y-114209849D01*
X123535976Y-114203919D01*
X123569064Y-114199683D01*
X123604303Y-114197141D01*
X123641695Y-114196294D01*
X123672424Y-114197176D01*
X123702329Y-114199820D01*
X123731409Y-114204228D01*
X123766600Y-114212217D01*
X123800503Y-114222961D01*
X123833118Y-114236460D01*
X123864445Y-114252714D01*
X123870509Y-114256288D01*
X123900036Y-114275598D01*
X123928240Y-114297304D01*
X123955120Y-114321407D01*
X123975671Y-114342416D01*
X123995374Y-114364959D01*
X124014230Y-114389036D01*
X124032240Y-114414647D01*
X124041032Y-114414647D01*
X124041032Y-113328743D01*
X124469678Y-113328743D01*
X124469678Y-116330000D01*
G37*
G36*
X122272907Y-114196620D02*
G01*
X122309319Y-114198333D01*
X122344674Y-114201515D01*
X122378974Y-114206164D01*
X122412217Y-114212282D01*
X122444404Y-114219869D01*
X122475535Y-114228923D01*
X122505610Y-114239446D01*
X122534628Y-114251438D01*
X122562591Y-114264897D01*
X122589497Y-114279825D01*
X122606736Y-114290387D01*
X122631640Y-114307023D01*
X122655397Y-114324613D01*
X122685290Y-114349549D01*
X122713145Y-114376179D01*
X122738962Y-114404503D01*
X122762742Y-114434522D01*
X122784483Y-114466236D01*
X122804187Y-114499644D01*
X122809842Y-114510179D01*
X122822980Y-114537345D01*
X122834686Y-114565692D01*
X122844962Y-114595220D01*
X122853806Y-114625928D01*
X122861219Y-114657816D01*
X122867201Y-114690886D01*
X122869242Y-114704433D01*
X122873768Y-114739026D01*
X122877471Y-114774657D01*
X122879841Y-114803909D01*
X122881684Y-114833825D01*
X122883001Y-114864405D01*
X122883791Y-114895649D01*
X122884054Y-114927557D01*
X122884054Y-115622916D01*
X122884037Y-115630866D01*
X122883642Y-115662293D01*
X122882721Y-115693125D01*
X122881273Y-115723362D01*
X122879298Y-115753003D01*
X122876088Y-115789217D01*
X122872056Y-115824501D01*
X122867201Y-115858855D01*
X122864980Y-115872313D01*
X122858426Y-115905107D01*
X122850440Y-115936685D01*
X122841023Y-115967046D01*
X122830175Y-115996190D01*
X122817897Y-116024118D01*
X122804187Y-116050830D01*
X122789600Y-116076045D01*
X122768368Y-116108182D01*
X122745098Y-116138624D01*
X122719790Y-116167372D01*
X122692445Y-116194426D01*
X122663061Y-116219785D01*
X122639686Y-116237693D01*
X122615165Y-116254647D01*
X122589497Y-116270648D01*
X122571677Y-116280675D01*
X122544066Y-116294502D01*
X122515400Y-116306873D01*
X122485677Y-116317789D01*
X122454898Y-116327249D01*
X122423063Y-116335254D01*
X122390172Y-116341803D01*
X122356225Y-116346897D01*
X122321221Y-116350536D01*
X122285161Y-116352719D01*
X122248046Y-116353447D01*
X122223098Y-116353123D01*
X122186579Y-116351425D01*
X122151142Y-116348272D01*
X122116787Y-116343663D01*
X122083514Y-116337599D01*
X122051322Y-116330079D01*
X122020213Y-116321104D01*
X121990185Y-116310673D01*
X121961240Y-116298787D01*
X121933376Y-116285445D01*
X121906594Y-116270648D01*
X121889266Y-116260087D01*
X121864240Y-116243450D01*
X121840374Y-116225860D01*
X121810355Y-116200925D01*
X121782397Y-116174295D01*
X121756499Y-116145970D01*
X121732663Y-116115951D01*
X121710887Y-116084238D01*
X121691172Y-116050830D01*
X121685516Y-116040291D01*
X121672379Y-116013093D01*
X121660672Y-115984678D01*
X121650397Y-115955047D01*
X121641552Y-115924200D01*
X121634139Y-115892136D01*
X121628157Y-115858855D01*
X121627120Y-115852059D01*
X121622430Y-115817519D01*
X121618562Y-115782049D01*
X121615518Y-115745648D01*
X121613674Y-115715858D01*
X121612358Y-115685473D01*
X121612351Y-115685198D01*
X122039951Y-115685198D01*
X122040832Y-115714301D01*
X122044414Y-115748040D01*
X122050750Y-115778845D01*
X122061990Y-115811938D01*
X122077197Y-115840806D01*
X122096371Y-115865450D01*
X122103489Y-115872637D01*
X122126733Y-115891416D01*
X122152811Y-115906022D01*
X122181722Y-115916454D01*
X122213467Y-115922714D01*
X122248046Y-115924801D01*
X122259801Y-115924569D01*
X122293246Y-115921091D01*
X122323960Y-115913440D01*
X122351944Y-115901617D01*
X122377198Y-115885620D01*
X122399720Y-115865450D01*
X122415763Y-115845207D01*
X122431425Y-115817042D01*
X122443172Y-115784653D01*
X122449970Y-115754436D01*
X122454048Y-115721284D01*
X122455408Y-115685198D01*
X122455408Y-114864542D01*
X122454538Y-114835451D01*
X122451003Y-114801759D01*
X122444749Y-114771037D01*
X122433655Y-114738089D01*
X122418645Y-114709419D01*
X122399720Y-114685024D01*
X122392516Y-114677748D01*
X122369083Y-114658737D01*
X122342920Y-114643951D01*
X122314025Y-114633389D01*
X122282401Y-114627053D01*
X122248046Y-114624940D01*
X122236205Y-114625175D01*
X122202571Y-114628695D01*
X122171770Y-114636441D01*
X122143803Y-114648410D01*
X122118670Y-114664605D01*
X122096371Y-114685024D01*
X122080117Y-114705056D01*
X122064249Y-114733014D01*
X122052348Y-114765248D01*
X122045460Y-114795377D01*
X122041328Y-114828475D01*
X122039951Y-114864542D01*
X122039951Y-115685198D01*
X121612351Y-115685198D01*
X121611568Y-115654492D01*
X121611304Y-115622916D01*
X121611304Y-114927557D01*
X121611321Y-114919518D01*
X121611716Y-114887776D01*
X121612638Y-114856698D01*
X121614086Y-114826284D01*
X121616061Y-114796534D01*
X121619270Y-114760280D01*
X121623302Y-114725064D01*
X121628157Y-114690886D01*
X121630378Y-114677516D01*
X121636933Y-114644919D01*
X121644918Y-114613503D01*
X121654335Y-114583267D01*
X121665183Y-114554212D01*
X121677462Y-114526337D01*
X121691172Y-114499644D01*
X121705765Y-114474429D01*
X121727025Y-114442292D01*
X121750347Y-114411849D01*
X121775729Y-114383101D01*
X121803172Y-114356047D01*
X121832676Y-114330688D01*
X121856156Y-114312781D01*
X121880795Y-114295826D01*
X121906594Y-114279825D01*
X121924328Y-114269710D01*
X121951831Y-114255761D01*
X121980416Y-114243280D01*
X122010083Y-114232268D01*
X122040832Y-114222724D01*
X122072663Y-114214648D01*
X122105576Y-114208041D01*
X122139570Y-114202901D01*
X122174647Y-114199231D01*
X122210805Y-114197028D01*
X122248046Y-114196294D01*
X122272907Y-114196620D01*
G37*
G36*
X120749524Y-114197038D02*
G01*
X120785153Y-114199271D01*
X120819866Y-114202992D01*
X120853663Y-114208201D01*
X120886544Y-114214898D01*
X120918510Y-114223084D01*
X120949559Y-114232759D01*
X120979692Y-114243921D01*
X121008841Y-114256366D01*
X121036937Y-114269887D01*
X121063979Y-114284485D01*
X121089968Y-114300158D01*
X121114904Y-114316908D01*
X121138786Y-114334734D01*
X121161615Y-114353636D01*
X121183391Y-114373614D01*
X121204863Y-114395739D01*
X121224950Y-114418700D01*
X121243652Y-114442497D01*
X121260969Y-114467129D01*
X121276900Y-114492597D01*
X121291446Y-114518901D01*
X121304606Y-114546040D01*
X121316381Y-114574016D01*
X121326771Y-114602827D01*
X121335776Y-114632474D01*
X121343395Y-114662956D01*
X121349629Y-114694275D01*
X121354477Y-114726429D01*
X121357941Y-114759419D01*
X121360019Y-114793244D01*
X121360711Y-114827906D01*
X120953314Y-114827906D01*
X120948905Y-114809646D01*
X120939667Y-114781103D01*
X120925465Y-114749968D01*
X120907862Y-114722233D01*
X120886859Y-114697898D01*
X120862456Y-114676964D01*
X120853695Y-114670664D01*
X120826690Y-114654204D01*
X120798603Y-114641401D01*
X120769434Y-114632256D01*
X120739183Y-114626769D01*
X120707850Y-114624940D01*
X120678621Y-114626005D01*
X120645402Y-114630330D01*
X120615867Y-114637983D01*
X120585290Y-114651559D01*
X120560019Y-114669926D01*
X120540055Y-114693084D01*
X120529064Y-114710509D01*
X120515326Y-114738794D01*
X120504884Y-114769654D01*
X120497740Y-114803091D01*
X120494306Y-114832922D01*
X120493161Y-114864542D01*
X120493161Y-115076301D01*
X120497357Y-115074793D01*
X120525767Y-115066959D01*
X120556175Y-115063845D01*
X120577024Y-115063845D01*
X120606734Y-115063845D01*
X120622842Y-115063845D01*
X120652896Y-115063845D01*
X120670007Y-115063845D01*
X120699790Y-115063845D01*
X120724700Y-115064016D01*
X120761024Y-115064918D01*
X120796098Y-115066592D01*
X120829923Y-115069040D01*
X120862499Y-115072260D01*
X120893825Y-115076252D01*
X120923902Y-115081018D01*
X120962061Y-115088574D01*
X120997999Y-115097504D01*
X121031716Y-115107808D01*
X121063487Y-115119498D01*
X121093586Y-115132584D01*
X121122014Y-115147067D01*
X121148770Y-115162946D01*
X121173854Y-115180222D01*
X121197267Y-115198896D01*
X121219008Y-115218966D01*
X121239078Y-115240432D01*
X121258095Y-115264211D01*
X121275577Y-115289388D01*
X121291526Y-115315960D01*
X121305940Y-115343930D01*
X121318820Y-115373296D01*
X121330166Y-115404060D01*
X121339977Y-115436220D01*
X121348255Y-115469776D01*
X121351804Y-115486984D01*
X121358215Y-115522430D01*
X121363711Y-115559249D01*
X121368290Y-115597443D01*
X121371124Y-115626989D01*
X121373442Y-115657309D01*
X121375246Y-115688401D01*
X121376534Y-115720266D01*
X121377306Y-115752904D01*
X121377564Y-115786315D01*
X121377392Y-115808134D01*
X121376491Y-115839906D01*
X121374816Y-115870533D01*
X121371382Y-115909585D01*
X121366573Y-115946599D01*
X121360391Y-115981576D01*
X121352834Y-116014514D01*
X121343904Y-116045415D01*
X121333600Y-116074277D01*
X121330780Y-116081187D01*
X121315886Y-116114188D01*
X121299668Y-116144613D01*
X121282126Y-116172463D01*
X121263261Y-116197736D01*
X121243071Y-116220434D01*
X121217096Y-116244270D01*
X121208098Y-116251990D01*
X121180826Y-116273259D01*
X121153143Y-116291694D01*
X121125047Y-116307296D01*
X121096540Y-116320065D01*
X121067620Y-116330000D01*
X121043384Y-116336754D01*
X121014395Y-116343349D01*
X120980706Y-116348959D01*
X120947156Y-116352325D01*
X120913747Y-116353447D01*
X120894599Y-116353204D01*
X120857916Y-116351257D01*
X120823387Y-116347365D01*
X120791009Y-116341526D01*
X120760784Y-116333740D01*
X120732711Y-116324009D01*
X120700647Y-116309107D01*
X120671946Y-116291165D01*
X120661147Y-116283168D01*
X120634225Y-116261322D01*
X120607409Y-116236828D01*
X120586034Y-116215327D01*
X120564728Y-116192132D01*
X120543490Y-116167242D01*
X120522321Y-116140658D01*
X120501221Y-116112379D01*
X120493161Y-116112379D01*
X120493161Y-116330000D01*
X120064515Y-116330000D01*
X120064515Y-115700586D01*
X120493161Y-115700586D01*
X120493702Y-115724925D01*
X120496106Y-115755734D01*
X120501816Y-115791604D01*
X120510532Y-115824541D01*
X120522252Y-115854545D01*
X120536978Y-115881614D01*
X120554710Y-115905750D01*
X120574914Y-115926647D01*
X120602322Y-115947049D01*
X120633183Y-115962351D01*
X120661537Y-115971206D01*
X120692288Y-115976519D01*
X120725436Y-115978290D01*
X120751093Y-115977088D01*
X120781135Y-115972204D01*
X120814211Y-115961385D01*
X120844041Y-115945156D01*
X120870625Y-115923518D01*
X120890300Y-115901353D01*
X120900775Y-115886385D01*
X120915945Y-115859634D01*
X120928253Y-115830629D01*
X120937698Y-115799370D01*
X120944281Y-115765856D01*
X120948002Y-115730089D01*
X120948918Y-115699853D01*
X120948821Y-115689014D01*
X120947372Y-115657778D01*
X120942735Y-115619115D01*
X120935007Y-115583864D01*
X120924188Y-115552025D01*
X120910278Y-115523597D01*
X120893276Y-115498582D01*
X120873183Y-115476978D01*
X120850000Y-115458785D01*
X120824629Y-115443158D01*
X120797976Y-115429614D01*
X120770040Y-115418153D01*
X120740823Y-115408777D01*
X120710323Y-115401484D01*
X120678541Y-115396274D01*
X120645477Y-115393149D01*
X120611130Y-115392107D01*
X120586171Y-115392931D01*
X120554480Y-115395829D01*
X120523099Y-115400157D01*
X120493161Y-115405296D01*
X120493161Y-115700586D01*
X120064515Y-115700586D01*
X120064515Y-114862344D01*
X120064715Y-114841627D01*
X120065767Y-114811175D01*
X120067720Y-114781469D01*
X120071727Y-114743024D01*
X120077337Y-114705907D01*
X120084550Y-114670117D01*
X120093366Y-114635656D01*
X120103784Y-114602523D01*
X120115806Y-114570718D01*
X120128983Y-114540218D01*
X120143237Y-114511001D01*
X120158567Y-114483066D01*
X120174973Y-114456413D01*
X120192456Y-114431042D01*
X120211014Y-114406953D01*
X120230649Y-114384147D01*
X120251360Y-114362623D01*
X120273995Y-114342565D01*
X120297568Y-114323789D01*
X120322080Y-114306295D01*
X120347531Y-114290083D01*
X120373921Y-114275154D01*
X120401249Y-114261507D01*
X120429516Y-114249142D01*
X120458722Y-114238060D01*
X120488661Y-114228271D01*
X120519127Y-114219787D01*
X120550119Y-114212609D01*
X120581638Y-114206735D01*
X120613683Y-114202167D01*
X120646255Y-114198904D01*
X120679354Y-114196947D01*
X120712979Y-114196294D01*
X120749524Y-114197038D01*
G37*
G36*
X119730390Y-116330000D02*
G01*
X119730390Y-114219741D01*
X119301744Y-114219741D01*
X119301744Y-114447620D01*
X119277747Y-114426082D01*
X119253839Y-114405434D01*
X119230022Y-114385674D01*
X119206295Y-114366802D01*
X119182658Y-114348820D01*
X119151282Y-114326225D01*
X119120067Y-114305211D01*
X119089012Y-114285776D01*
X119058117Y-114267922D01*
X119050418Y-114263705D01*
X119018567Y-114247906D01*
X118984931Y-114234213D01*
X118949508Y-114222626D01*
X118912299Y-114213147D01*
X118883220Y-114207419D01*
X118853137Y-114202877D01*
X118822049Y-114199520D01*
X118789956Y-114197347D01*
X118756859Y-114196360D01*
X118745603Y-114196294D01*
X118745603Y-114649853D01*
X118776653Y-114638954D01*
X118808251Y-114631168D01*
X118840400Y-114626497D01*
X118873098Y-114624940D01*
X118902440Y-114626027D01*
X118932764Y-114629288D01*
X118964069Y-114634723D01*
X118996357Y-114642331D01*
X119015247Y-114647655D01*
X119043308Y-114657255D01*
X119070339Y-114669018D01*
X119096340Y-114682946D01*
X119121310Y-114699037D01*
X119145249Y-114717293D01*
X119153000Y-114723859D01*
X119176880Y-114745351D01*
X119199059Y-114769162D01*
X119219538Y-114795291D01*
X119238317Y-114823739D01*
X119255396Y-114854505D01*
X119260711Y-114865275D01*
X119272532Y-114893543D01*
X119282350Y-114923850D01*
X119290164Y-114956197D01*
X119295974Y-114990583D01*
X119299781Y-115027009D01*
X119301383Y-115057617D01*
X119301744Y-115081430D01*
X119301744Y-116330000D01*
X119730390Y-116330000D01*
G37*
G36*
X117719783Y-114414647D02*
G01*
X117724298Y-114408100D01*
X117742885Y-114382873D01*
X117762319Y-114359179D01*
X117782601Y-114337020D01*
X117803730Y-114316395D01*
X117831333Y-114292771D01*
X117860259Y-114271544D01*
X117890509Y-114252714D01*
X117921872Y-114236460D01*
X117954594Y-114222961D01*
X117988676Y-114212217D01*
X118024117Y-114204228D01*
X118053449Y-114199820D01*
X118083652Y-114197176D01*
X118114724Y-114196294D01*
X118124629Y-114196347D01*
X118162691Y-114197618D01*
X118198257Y-114200583D01*
X118231327Y-114205243D01*
X118261901Y-114211597D01*
X118296609Y-114221922D01*
X118327418Y-114234895D01*
X118354326Y-114250516D01*
X118375275Y-114263925D01*
X118404540Y-114285553D01*
X118431217Y-114308997D01*
X118455305Y-114334257D01*
X118476803Y-114361333D01*
X118495713Y-114390224D01*
X118512034Y-114420933D01*
X118525767Y-114453457D01*
X118536910Y-114487797D01*
X118545464Y-114523953D01*
X118551430Y-114561926D01*
X118552938Y-114576036D01*
X118555663Y-114607040D01*
X118557999Y-114641753D01*
X118559945Y-114680175D01*
X118561149Y-114711426D01*
X118562135Y-114744764D01*
X118562901Y-114780188D01*
X118563449Y-114817699D01*
X118563777Y-114857297D01*
X118563886Y-114898981D01*
X118563886Y-115701318D01*
X118563870Y-115712193D01*
X118563623Y-115743977D01*
X118563080Y-115774498D01*
X118561895Y-115813230D01*
X118560183Y-115849717D01*
X118557945Y-115883961D01*
X118555180Y-115915961D01*
X118551889Y-115945716D01*
X118547034Y-115979755D01*
X118542511Y-116005080D01*
X118535989Y-116035320D01*
X118528501Y-116063985D01*
X118518240Y-116096305D01*
X118506588Y-116126358D01*
X118493545Y-116154145D01*
X118472612Y-116189762D01*
X118448834Y-116221876D01*
X118422209Y-116250487D01*
X118392737Y-116275594D01*
X118360419Y-116297198D01*
X118325255Y-116315299D01*
X118287244Y-116329896D01*
X118246386Y-116340990D01*
X118217566Y-116346440D01*
X118187482Y-116350333D01*
X118156132Y-116352668D01*
X118123517Y-116353447D01*
X118113705Y-116353384D01*
X118080626Y-116352172D01*
X118049511Y-116349417D01*
X118016355Y-116344379D01*
X117985764Y-116337327D01*
X117967767Y-116331949D01*
X117936997Y-116320557D01*
X117908313Y-116306962D01*
X117881716Y-116291165D01*
X117867505Y-116281984D01*
X117843008Y-116264197D01*
X117819901Y-116244787D01*
X117798185Y-116223754D01*
X117781661Y-116206163D01*
X117759900Y-116182721D01*
X117740071Y-116161106D01*
X117719783Y-116138757D01*
X117719783Y-116330000D01*
X117291137Y-116330000D01*
X117291137Y-115670544D01*
X117719783Y-115670544D01*
X117719840Y-115677737D01*
X117721818Y-115712438D01*
X117726623Y-115745028D01*
X117734255Y-115775507D01*
X117744712Y-115803875D01*
X117757997Y-115830133D01*
X117777669Y-115858855D01*
X117784959Y-115867639D01*
X117808581Y-115890591D01*
X117834830Y-115908443D01*
X117863707Y-115921194D01*
X117895212Y-115928845D01*
X117929344Y-115931395D01*
X117948900Y-115930706D01*
X117979261Y-115926495D01*
X118012010Y-115916389D01*
X118040741Y-115900769D01*
X118065454Y-115879638D01*
X118086147Y-115852993D01*
X118097654Y-115832431D01*
X118109879Y-115804539D01*
X118119707Y-115774213D01*
X118127138Y-115741455D01*
X118132172Y-115706264D01*
X118134473Y-115676360D01*
X118135240Y-115644898D01*
X118135240Y-114873335D01*
X118134860Y-114854876D01*
X118132538Y-114825112D01*
X118126966Y-114791049D01*
X118118353Y-114758789D01*
X118106701Y-114728332D01*
X118092009Y-114699678D01*
X118076639Y-114678147D01*
X118053283Y-114657127D01*
X118024570Y-114641362D01*
X117996548Y-114632239D01*
X117964806Y-114626765D01*
X117929344Y-114624940D01*
X117918198Y-114625192D01*
X117886204Y-114628970D01*
X117856374Y-114637282D01*
X117828708Y-114650128D01*
X117803205Y-114667507D01*
X117779867Y-114689420D01*
X117769129Y-114701813D01*
X117750823Y-114728414D01*
X117736740Y-114757437D01*
X117726883Y-114788882D01*
X117721250Y-114822748D01*
X117719783Y-114852819D01*
X117719783Y-115670544D01*
X117291137Y-115670544D01*
X117291137Y-113328743D01*
X117719783Y-113328743D01*
X117719783Y-114414647D01*
G37*
G36*
X114857013Y-114219741D02*
G01*
X115410956Y-116330000D01*
X115789043Y-116330000D01*
X116343719Y-114219741D01*
X115890160Y-114219741D01*
X115604396Y-115567962D01*
X115595603Y-115567962D01*
X115310572Y-114219741D01*
X114857013Y-114219741D01*
G37*
G36*
X114205617Y-116330000D02*
G01*
X114205617Y-113783768D01*
X114627669Y-114100307D01*
X114627669Y-113644549D01*
X114205617Y-113328743D01*
X113776971Y-113328743D01*
X113776971Y-116330000D01*
X114205617Y-116330000D01*
G37*
G36*
X113112386Y-116330000D02*
G01*
X113112386Y-115901353D01*
X112683740Y-115901353D01*
X112683740Y-116330000D01*
X113112386Y-116330000D01*
G37*
G36*
X111106908Y-113328743D02*
G01*
X111106908Y-113757390D01*
X111957606Y-113757390D01*
X111957606Y-114545073D01*
X111934439Y-114523761D01*
X111908902Y-114503788D01*
X111880996Y-114485155D01*
X111850719Y-114467862D01*
X111823678Y-114454473D01*
X111806664Y-114446887D01*
X111777065Y-114435488D01*
X111746428Y-114426022D01*
X111714754Y-114418487D01*
X111682043Y-114412884D01*
X111648294Y-114409213D01*
X111613507Y-114407474D01*
X111599302Y-114407320D01*
X111558951Y-114408485D01*
X111520055Y-114411982D01*
X111482615Y-114417811D01*
X111446631Y-114425970D01*
X111412102Y-114436461D01*
X111379028Y-114449283D01*
X111347410Y-114464436D01*
X111317247Y-114481921D01*
X111288540Y-114501737D01*
X111261288Y-114523884D01*
X111243928Y-114539944D01*
X111219441Y-114565845D01*
X111197363Y-114594091D01*
X111177693Y-114624681D01*
X111160432Y-114657615D01*
X111145579Y-114692894D01*
X111133135Y-114730516D01*
X111123099Y-114770483D01*
X111115472Y-114812793D01*
X111111725Y-114842303D01*
X111109049Y-114872854D01*
X111107443Y-114904448D01*
X111106908Y-114937083D01*
X111106908Y-115710844D01*
X111107732Y-115748064D01*
X111110205Y-115784254D01*
X111114327Y-115819414D01*
X111120097Y-115853543D01*
X111127516Y-115886641D01*
X111136584Y-115918710D01*
X111147300Y-115949748D01*
X111159665Y-115979755D01*
X111173220Y-116008549D01*
X111187875Y-116036313D01*
X111203628Y-116063046D01*
X111220481Y-116088749D01*
X111238433Y-116113421D01*
X111257484Y-116137063D01*
X111277634Y-116159674D01*
X111298883Y-116181256D01*
X111321460Y-116201692D01*
X111344862Y-116220869D01*
X111369088Y-116238786D01*
X111394138Y-116255444D01*
X111420012Y-116270843D01*
X111446711Y-116284982D01*
X111474234Y-116297862D01*
X111502581Y-116309483D01*
X111531501Y-116319787D01*
X111560742Y-116328717D01*
X111590303Y-116336273D01*
X111620184Y-116342456D01*
X111650387Y-116347264D01*
X111680909Y-116350699D01*
X111711753Y-116352760D01*
X111742916Y-116353447D01*
X111774252Y-116352760D01*
X111805244Y-116350699D01*
X111835893Y-116347264D01*
X111866198Y-116342456D01*
X111896160Y-116336273D01*
X111925778Y-116328717D01*
X111955053Y-116319787D01*
X111983984Y-116309483D01*
X112012320Y-116297862D01*
X112039809Y-116284982D01*
X112066450Y-116270843D01*
X112092245Y-116255444D01*
X112117192Y-116238786D01*
X112141292Y-116220869D01*
X112164544Y-116201692D01*
X112186950Y-116181256D01*
X112208382Y-116159663D01*
X112228715Y-116137017D01*
X112247950Y-116113318D01*
X112266085Y-116088565D01*
X112283121Y-116062760D01*
X112299057Y-116035901D01*
X112313895Y-116007988D01*
X112327634Y-115979023D01*
X112339827Y-115949015D01*
X112350394Y-115917977D01*
X112359336Y-115885909D01*
X112366652Y-115852810D01*
X112372342Y-115818681D01*
X112376406Y-115783521D01*
X112378845Y-115747331D01*
X112379658Y-115710111D01*
X112379658Y-115583349D01*
X111957606Y-115583349D01*
X111957606Y-115693258D01*
X111956121Y-115726406D01*
X111951667Y-115757157D01*
X111944243Y-115785511D01*
X111931414Y-115816372D01*
X111914310Y-115843780D01*
X111896789Y-115863984D01*
X111872446Y-115884652D01*
X111845579Y-115901044D01*
X111816186Y-115913160D01*
X111784270Y-115921000D01*
X111749829Y-115924563D01*
X111737787Y-115924801D01*
X111703312Y-115922740D01*
X111671876Y-115916557D01*
X111643480Y-115906253D01*
X111614193Y-115889023D01*
X111589043Y-115866182D01*
X111570865Y-115842526D01*
X111556448Y-115815521D01*
X111545792Y-115785167D01*
X111538897Y-115751465D01*
X111536024Y-115720821D01*
X111535554Y-115701318D01*
X111535554Y-114997899D01*
X111537564Y-114965304D01*
X111543591Y-114934564D01*
X111553638Y-114905678D01*
X111567703Y-114878647D01*
X111585786Y-114853471D01*
X111592707Y-114845491D01*
X111614972Y-114824076D01*
X111639453Y-114807092D01*
X111666149Y-114794538D01*
X111695060Y-114786415D01*
X111726187Y-114782723D01*
X111737055Y-114782477D01*
X111766634Y-114784042D01*
X111796372Y-114789451D01*
X111825283Y-114799865D01*
X111830111Y-114802260D01*
X111856386Y-114817476D01*
X111880898Y-114836053D01*
X111892393Y-114846957D01*
X111912308Y-114870879D01*
X111927175Y-114896485D01*
X111930495Y-114904110D01*
X111945221Y-114930657D01*
X111954675Y-114942944D01*
X112332763Y-114942944D01*
X112332763Y-113328743D01*
X111106908Y-113328743D01*
G37*
M02*
