%TF.GenerationSoftware,KiCad,Pcbnew,7.0.7*%
%TF.CreationDate,2024-04-28T08:46:17+01:00*%
%TF.ProjectId,LRF45,4c524634-352e-46b6-9963-61645f706362,rev?*%
%TF.SameCoordinates,Original*%
%TF.FileFunction,Soldermask,Bot*%
%TF.FilePolarity,Negative*%
%FSLAX46Y46*%
G04 Gerber Fmt 4.6, Leading zero omitted, Abs format (unit mm)*
G04 Created by KiCad (PCBNEW 7.0.7) date 2024-04-28 08:46:17*
%MOMM*%
%LPD*%
G01*
G04 APERTURE LIST*
G04 Aperture macros list*
%AMRoundRect*
0 Rectangle with rounded corners*
0 $1 Rounding radius*
0 $2 $3 $4 $5 $6 $7 $8 $9 X,Y pos of 4 corners*
0 Add a 4 corners polygon primitive as box body*
4,1,4,$2,$3,$4,$5,$6,$7,$8,$9,$2,$3,0*
0 Add four circle primitives for the rounded corners*
1,1,$1+$1,$2,$3*
1,1,$1+$1,$4,$5*
1,1,$1+$1,$6,$7*
1,1,$1+$1,$8,$9*
0 Add four rect primitives between the rounded corners*
20,1,$1+$1,$2,$3,$4,$5,0*
20,1,$1+$1,$4,$5,$6,$7,0*
20,1,$1+$1,$6,$7,$8,$9,0*
20,1,$1+$1,$8,$9,$2,$3,0*%
G04 Aperture macros list end*
%ADD10R,1.700000X1.700000*%
%ADD11O,1.700000X1.700000*%
%ADD12RoundRect,0.250000X0.600000X0.725000X-0.600000X0.725000X-0.600000X-0.725000X0.600000X-0.725000X0*%
%ADD13O,1.700000X1.950000*%
%ADD14C,2.200000*%
%ADD15C,1.200000*%
%ADD16RoundRect,0.250000X-0.725000X0.600000X-0.725000X-0.600000X0.725000X-0.600000X0.725000X0.600000X0*%
%ADD17O,1.950000X1.700000*%
G04 APERTURE END LIST*
D10*
%TO.C,J2*%
X146050000Y-101600000D03*
D11*
X143510000Y-101600000D03*
X140970000Y-101600000D03*
X138430000Y-101600000D03*
X135890000Y-101600000D03*
X133350000Y-101600000D03*
X130810000Y-101600000D03*
X128270000Y-101600000D03*
X125730000Y-101600000D03*
X123190000Y-101600000D03*
X120650000Y-101600000D03*
X118110000Y-101600000D03*
%TD*%
D12*
%TO.C,J5*%
X129540000Y-129540000D03*
D13*
X127040000Y-129540000D03*
X124540000Y-129540000D03*
%TD*%
D10*
%TO.C,J1*%
X107950000Y-121920000D03*
D11*
X110490000Y-121920000D03*
X113030000Y-121920000D03*
X115570000Y-121920000D03*
X118110000Y-121920000D03*
X120650000Y-121920000D03*
X123190000Y-121920000D03*
X125730000Y-121920000D03*
X128270000Y-121920000D03*
X130810000Y-121920000D03*
X133350000Y-121920000D03*
X135890000Y-121920000D03*
X138430000Y-121920000D03*
X140970000Y-121920000D03*
X143510000Y-121920000D03*
X146050000Y-121920000D03*
%TD*%
D14*
%TO.C,REF\u002A\u002A*%
X105410000Y-133350000D03*
%TD*%
%TO.C,REF\u002A\u002A*%
X163830000Y-101600000D03*
%TD*%
D10*
%TO.C,J4*%
X154940000Y-124470000D03*
D11*
X154940000Y-127010000D03*
X154940000Y-129550000D03*
X154940000Y-132090000D03*
%TD*%
D12*
%TO.C,J3*%
X144660000Y-129540000D03*
D13*
X142160000Y-129540000D03*
X139660000Y-129540000D03*
X137160000Y-129540000D03*
%TD*%
D15*
%TO.C,J6*%
X155480000Y-103890000D03*
D16*
X157480000Y-105490000D03*
D17*
X157480000Y-107990000D03*
X157480000Y-110490000D03*
X157480000Y-112990000D03*
X157480000Y-115490000D03*
X157480000Y-117990000D03*
%TD*%
M02*
