M48
; DRILL file {KiCad 7.0.7} date 2024 April 28, Sunday 08:46:15
; FORMAT={-:-/ absolute / inch / decimal}
; #@! TF.CreationDate,2024-04-28T08:46:15+01:00
; #@! TF.GenerationSoftware,Kicad,Pcbnew,7.0.7
; #@! TF.FileFunction,Plated,1,2,PTH
FMAT,2
INCH
; #@! TA.AperFunction,Plated,PTH,ViaDrill
T1C0.0157
; #@! TA.AperFunction,Plated,PTH,ComponentDrill
T2C0.0374
; #@! TA.AperFunction,Plated,PTH,ComponentDrill
T3C0.0394
%
G90
G05
T1
X4.75Y-5.05
T2
X4.9031Y-5.1
X5.0016Y-5.1
X5.1Y-5.1
X5.4Y-5.1
X5.4984Y-5.1
X5.5969Y-5.1
X5.6953Y-5.1
X6.2Y-4.1531
X6.2Y-4.2516
X6.2Y-4.35
X6.2Y-4.4484
X6.2Y-4.5469
X6.2Y-4.6453
T3
X4.25Y-4.8
X4.35Y-4.8
X4.45Y-4.8
X4.55Y-4.8
X4.65Y-4.0
X4.65Y-4.8
X4.75Y-4.0
X4.75Y-4.8
X4.85Y-4.0
X4.85Y-4.8
X4.95Y-4.0
X4.95Y-4.8
X5.05Y-4.0
X5.05Y-4.8
X5.15Y-4.0
X5.15Y-4.8
X5.25Y-4.0
X5.25Y-4.8
X5.35Y-4.0
X5.35Y-4.8
X5.45Y-4.0
X5.45Y-4.8
X5.55Y-4.0
X5.55Y-4.8
X5.65Y-4.0
X5.65Y-4.8
X5.75Y-4.0
X5.75Y-4.8
X6.1Y-4.9004
X6.1Y-5.0004
X6.1Y-5.1004
X6.1Y-5.2004
T0
M30
