%TF.GenerationSoftware,KiCad,Pcbnew,7.0.7*%
%TF.CreationDate,2024-04-28T08:46:17+01:00*%
%TF.ProjectId,LRF45,4c524634-352e-46b6-9963-61645f706362,rev?*%
%TF.SameCoordinates,Original*%
%TF.FileFunction,Legend,Top*%
%TF.FilePolarity,Positive*%
%FSLAX46Y46*%
G04 Gerber Fmt 4.6, Leading zero omitted, Abs format (unit mm)*
G04 Created by KiCad (PCBNEW 7.0.7) date 2024-04-28 08:46:17*
%MOMM*%
%LPD*%
G01*
G04 APERTURE LIST*
%ADD10C,0.200000*%
%ADD11C,0.150000*%
%ADD12C,0.120000*%
G04 APERTURE END LIST*
D10*
X124318742Y-135644136D02*
X125518742Y-135244136D01*
X125518742Y-135244136D02*
X124318742Y-134844136D01*
X125518742Y-134444136D02*
X124318742Y-134444136D01*
X125518742Y-133872707D02*
X124318742Y-133872707D01*
X124318742Y-133872707D02*
X125518742Y-133186993D01*
X125518742Y-133186993D02*
X124318742Y-133186993D01*
X126307885Y-134844136D02*
X126250742Y-134958422D01*
X126250742Y-134958422D02*
X126250742Y-135129850D01*
X126250742Y-135129850D02*
X126307885Y-135301279D01*
X126307885Y-135301279D02*
X126422171Y-135415564D01*
X126422171Y-135415564D02*
X126536457Y-135472707D01*
X126536457Y-135472707D02*
X126765028Y-135529850D01*
X126765028Y-135529850D02*
X126936457Y-135529850D01*
X126936457Y-135529850D02*
X127165028Y-135472707D01*
X127165028Y-135472707D02*
X127279314Y-135415564D01*
X127279314Y-135415564D02*
X127393600Y-135301279D01*
X127393600Y-135301279D02*
X127450742Y-135129850D01*
X127450742Y-135129850D02*
X127450742Y-135015564D01*
X127450742Y-135015564D02*
X127393600Y-134844136D01*
X127393600Y-134844136D02*
X127336457Y-134786993D01*
X127336457Y-134786993D02*
X126936457Y-134786993D01*
X126936457Y-134786993D02*
X126936457Y-135015564D01*
X127450742Y-134272707D02*
X126250742Y-134272707D01*
X126250742Y-134272707D02*
X127450742Y-133586993D01*
X127450742Y-133586993D02*
X126250742Y-133586993D01*
X127450742Y-133015564D02*
X126250742Y-133015564D01*
X126250742Y-133015564D02*
X126250742Y-132729850D01*
X126250742Y-132729850D02*
X126307885Y-132558421D01*
X126307885Y-132558421D02*
X126422171Y-132444136D01*
X126422171Y-132444136D02*
X126536457Y-132386993D01*
X126536457Y-132386993D02*
X126765028Y-132329850D01*
X126765028Y-132329850D02*
X126936457Y-132329850D01*
X126936457Y-132329850D02*
X127165028Y-132386993D01*
X127165028Y-132386993D02*
X127279314Y-132444136D01*
X127279314Y-132444136D02*
X127393600Y-132558421D01*
X127393600Y-132558421D02*
X127450742Y-132729850D01*
X127450742Y-132729850D02*
X127450742Y-133015564D01*
X129382742Y-135472707D02*
X128182742Y-135472707D01*
X128182742Y-135472707D02*
X128182742Y-135186993D01*
X128182742Y-135186993D02*
X128239885Y-135015564D01*
X128239885Y-135015564D02*
X128354171Y-134901279D01*
X128354171Y-134901279D02*
X128468457Y-134844136D01*
X128468457Y-134844136D02*
X128697028Y-134786993D01*
X128697028Y-134786993D02*
X128868457Y-134786993D01*
X128868457Y-134786993D02*
X129097028Y-134844136D01*
X129097028Y-134844136D02*
X129211314Y-134901279D01*
X129211314Y-134901279D02*
X129325600Y-135015564D01*
X129325600Y-135015564D02*
X129382742Y-135186993D01*
X129382742Y-135186993D02*
X129382742Y-135472707D01*
X129039885Y-134329850D02*
X129039885Y-133758422D01*
X129382742Y-134444136D02*
X128182742Y-134044136D01*
X128182742Y-134044136D02*
X129382742Y-133644136D01*
X128182742Y-133415565D02*
X128182742Y-132729851D01*
X129382742Y-133072708D02*
X128182742Y-133072708D01*
X157725863Y-124318742D02*
X158125863Y-125518742D01*
X158125863Y-125518742D02*
X158525863Y-124318742D01*
X158925863Y-125518742D02*
X158925863Y-124318742D01*
X159497292Y-125518742D02*
X159497292Y-124318742D01*
X159497292Y-124318742D02*
X160183006Y-125518742D01*
X160183006Y-125518742D02*
X160183006Y-124318742D01*
X158525863Y-126307885D02*
X158411578Y-126250742D01*
X158411578Y-126250742D02*
X158240149Y-126250742D01*
X158240149Y-126250742D02*
X158068720Y-126307885D01*
X158068720Y-126307885D02*
X157954435Y-126422171D01*
X157954435Y-126422171D02*
X157897292Y-126536457D01*
X157897292Y-126536457D02*
X157840149Y-126765028D01*
X157840149Y-126765028D02*
X157840149Y-126936457D01*
X157840149Y-126936457D02*
X157897292Y-127165028D01*
X157897292Y-127165028D02*
X157954435Y-127279314D01*
X157954435Y-127279314D02*
X158068720Y-127393600D01*
X158068720Y-127393600D02*
X158240149Y-127450742D01*
X158240149Y-127450742D02*
X158354435Y-127450742D01*
X158354435Y-127450742D02*
X158525863Y-127393600D01*
X158525863Y-127393600D02*
X158583006Y-127336457D01*
X158583006Y-127336457D02*
X158583006Y-126936457D01*
X158583006Y-126936457D02*
X158354435Y-126936457D01*
X159097292Y-127450742D02*
X159097292Y-126250742D01*
X159097292Y-126250742D02*
X159783006Y-127450742D01*
X159783006Y-127450742D02*
X159783006Y-126250742D01*
X160354435Y-127450742D02*
X160354435Y-126250742D01*
X160354435Y-126250742D02*
X160640149Y-126250742D01*
X160640149Y-126250742D02*
X160811578Y-126307885D01*
X160811578Y-126307885D02*
X160925863Y-126422171D01*
X160925863Y-126422171D02*
X160983006Y-126536457D01*
X160983006Y-126536457D02*
X161040149Y-126765028D01*
X161040149Y-126765028D02*
X161040149Y-126936457D01*
X161040149Y-126936457D02*
X160983006Y-127165028D01*
X160983006Y-127165028D02*
X160925863Y-127279314D01*
X160925863Y-127279314D02*
X160811578Y-127393600D01*
X160811578Y-127393600D02*
X160640149Y-127450742D01*
X160640149Y-127450742D02*
X160354435Y-127450742D01*
X158468720Y-128182742D02*
X157897292Y-128182742D01*
X157897292Y-128182742D02*
X157840149Y-128754171D01*
X157840149Y-128754171D02*
X157897292Y-128697028D01*
X157897292Y-128697028D02*
X158011578Y-128639885D01*
X158011578Y-128639885D02*
X158297292Y-128639885D01*
X158297292Y-128639885D02*
X158411578Y-128697028D01*
X158411578Y-128697028D02*
X158468720Y-128754171D01*
X158468720Y-128754171D02*
X158525863Y-128868457D01*
X158525863Y-128868457D02*
X158525863Y-129154171D01*
X158525863Y-129154171D02*
X158468720Y-129268457D01*
X158468720Y-129268457D02*
X158411578Y-129325600D01*
X158411578Y-129325600D02*
X158297292Y-129382742D01*
X158297292Y-129382742D02*
X158011578Y-129382742D01*
X158011578Y-129382742D02*
X157897292Y-129325600D01*
X157897292Y-129325600D02*
X157840149Y-129268457D01*
X158868720Y-128182742D02*
X159268720Y-129382742D01*
X159268720Y-129382742D02*
X159668720Y-128182742D01*
X160297291Y-128182742D02*
X160525863Y-128182742D01*
X160525863Y-128182742D02*
X160640148Y-128239885D01*
X160640148Y-128239885D02*
X160754434Y-128354171D01*
X160754434Y-128354171D02*
X160811577Y-128582742D01*
X160811577Y-128582742D02*
X160811577Y-128982742D01*
X160811577Y-128982742D02*
X160754434Y-129211314D01*
X160754434Y-129211314D02*
X160640148Y-129325600D01*
X160640148Y-129325600D02*
X160525863Y-129382742D01*
X160525863Y-129382742D02*
X160297291Y-129382742D01*
X160297291Y-129382742D02*
X160183006Y-129325600D01*
X160183006Y-129325600D02*
X160068720Y-129211314D01*
X160068720Y-129211314D02*
X160011577Y-128982742D01*
X160011577Y-128982742D02*
X160011577Y-128582742D01*
X160011577Y-128582742D02*
X160068720Y-128354171D01*
X160068720Y-128354171D02*
X160183006Y-128239885D01*
X160183006Y-128239885D02*
X160297291Y-128182742D01*
X161325863Y-128182742D02*
X161325863Y-129154171D01*
X161325863Y-129154171D02*
X161383006Y-129268457D01*
X161383006Y-129268457D02*
X161440149Y-129325600D01*
X161440149Y-129325600D02*
X161554434Y-129382742D01*
X161554434Y-129382742D02*
X161783006Y-129382742D01*
X161783006Y-129382742D02*
X161897291Y-129325600D01*
X161897291Y-129325600D02*
X161954434Y-129268457D01*
X161954434Y-129268457D02*
X162011577Y-129154171D01*
X162011577Y-129154171D02*
X162011577Y-128182742D01*
X162411577Y-128182742D02*
X163097292Y-128182742D01*
X162754434Y-129382742D02*
X162754434Y-128182742D01*
X162335863Y-105879885D02*
X162221578Y-105822742D01*
X162221578Y-105822742D02*
X162050149Y-105822742D01*
X162050149Y-105822742D02*
X161878720Y-105879885D01*
X161878720Y-105879885D02*
X161764435Y-105994171D01*
X161764435Y-105994171D02*
X161707292Y-106108457D01*
X161707292Y-106108457D02*
X161650149Y-106337028D01*
X161650149Y-106337028D02*
X161650149Y-106508457D01*
X161650149Y-106508457D02*
X161707292Y-106737028D01*
X161707292Y-106737028D02*
X161764435Y-106851314D01*
X161764435Y-106851314D02*
X161878720Y-106965600D01*
X161878720Y-106965600D02*
X162050149Y-107022742D01*
X162050149Y-107022742D02*
X162164435Y-107022742D01*
X162164435Y-107022742D02*
X162335863Y-106965600D01*
X162335863Y-106965600D02*
X162393006Y-106908457D01*
X162393006Y-106908457D02*
X162393006Y-106508457D01*
X162393006Y-106508457D02*
X162164435Y-106508457D01*
X162907292Y-107022742D02*
X162907292Y-105822742D01*
X162907292Y-105822742D02*
X163593006Y-107022742D01*
X163593006Y-107022742D02*
X163593006Y-105822742D01*
X164164435Y-107022742D02*
X164164435Y-105822742D01*
X164164435Y-105822742D02*
X164450149Y-105822742D01*
X164450149Y-105822742D02*
X164621578Y-105879885D01*
X164621578Y-105879885D02*
X164735863Y-105994171D01*
X164735863Y-105994171D02*
X164793006Y-106108457D01*
X164793006Y-106108457D02*
X164850149Y-106337028D01*
X164850149Y-106337028D02*
X164850149Y-106508457D01*
X164850149Y-106508457D02*
X164793006Y-106737028D01*
X164793006Y-106737028D02*
X164735863Y-106851314D01*
X164735863Y-106851314D02*
X164621578Y-106965600D01*
X164621578Y-106965600D02*
X164450149Y-107022742D01*
X164450149Y-107022742D02*
X164164435Y-107022742D01*
X162335863Y-107811885D02*
X162221578Y-107754742D01*
X162221578Y-107754742D02*
X162050149Y-107754742D01*
X162050149Y-107754742D02*
X161878720Y-107811885D01*
X161878720Y-107811885D02*
X161764435Y-107926171D01*
X161764435Y-107926171D02*
X161707292Y-108040457D01*
X161707292Y-108040457D02*
X161650149Y-108269028D01*
X161650149Y-108269028D02*
X161650149Y-108440457D01*
X161650149Y-108440457D02*
X161707292Y-108669028D01*
X161707292Y-108669028D02*
X161764435Y-108783314D01*
X161764435Y-108783314D02*
X161878720Y-108897600D01*
X161878720Y-108897600D02*
X162050149Y-108954742D01*
X162050149Y-108954742D02*
X162164435Y-108954742D01*
X162164435Y-108954742D02*
X162335863Y-108897600D01*
X162335863Y-108897600D02*
X162393006Y-108840457D01*
X162393006Y-108840457D02*
X162393006Y-108440457D01*
X162393006Y-108440457D02*
X162164435Y-108440457D01*
X162907292Y-108954742D02*
X162907292Y-107754742D01*
X162907292Y-107754742D02*
X163593006Y-108954742D01*
X163593006Y-108954742D02*
X163593006Y-107754742D01*
X164164435Y-108954742D02*
X164164435Y-107754742D01*
X164164435Y-107754742D02*
X164450149Y-107754742D01*
X164450149Y-107754742D02*
X164621578Y-107811885D01*
X164621578Y-107811885D02*
X164735863Y-107926171D01*
X164735863Y-107926171D02*
X164793006Y-108040457D01*
X164793006Y-108040457D02*
X164850149Y-108269028D01*
X164850149Y-108269028D02*
X164850149Y-108440457D01*
X164850149Y-108440457D02*
X164793006Y-108669028D01*
X164793006Y-108669028D02*
X164735863Y-108783314D01*
X164735863Y-108783314D02*
X164621578Y-108897600D01*
X164621578Y-108897600D02*
X164450149Y-108954742D01*
X164450149Y-108954742D02*
X164164435Y-108954742D01*
X162335863Y-109743885D02*
X162221578Y-109686742D01*
X162221578Y-109686742D02*
X162050149Y-109686742D01*
X162050149Y-109686742D02*
X161878720Y-109743885D01*
X161878720Y-109743885D02*
X161764435Y-109858171D01*
X161764435Y-109858171D02*
X161707292Y-109972457D01*
X161707292Y-109972457D02*
X161650149Y-110201028D01*
X161650149Y-110201028D02*
X161650149Y-110372457D01*
X161650149Y-110372457D02*
X161707292Y-110601028D01*
X161707292Y-110601028D02*
X161764435Y-110715314D01*
X161764435Y-110715314D02*
X161878720Y-110829600D01*
X161878720Y-110829600D02*
X162050149Y-110886742D01*
X162050149Y-110886742D02*
X162164435Y-110886742D01*
X162164435Y-110886742D02*
X162335863Y-110829600D01*
X162335863Y-110829600D02*
X162393006Y-110772457D01*
X162393006Y-110772457D02*
X162393006Y-110372457D01*
X162393006Y-110372457D02*
X162164435Y-110372457D01*
X162907292Y-110886742D02*
X162907292Y-109686742D01*
X162907292Y-109686742D02*
X163593006Y-110886742D01*
X163593006Y-110886742D02*
X163593006Y-109686742D01*
X164164435Y-110886742D02*
X164164435Y-109686742D01*
X164164435Y-109686742D02*
X164450149Y-109686742D01*
X164450149Y-109686742D02*
X164621578Y-109743885D01*
X164621578Y-109743885D02*
X164735863Y-109858171D01*
X164735863Y-109858171D02*
X164793006Y-109972457D01*
X164793006Y-109972457D02*
X164850149Y-110201028D01*
X164850149Y-110201028D02*
X164850149Y-110372457D01*
X164850149Y-110372457D02*
X164793006Y-110601028D01*
X164793006Y-110601028D02*
X164735863Y-110715314D01*
X164735863Y-110715314D02*
X164621578Y-110829600D01*
X164621578Y-110829600D02*
X164450149Y-110886742D01*
X164450149Y-110886742D02*
X164164435Y-110886742D01*
X161707292Y-112818742D02*
X161707292Y-111618742D01*
X161707292Y-111618742D02*
X162164435Y-111618742D01*
X162164435Y-111618742D02*
X162278720Y-111675885D01*
X162278720Y-111675885D02*
X162335863Y-111733028D01*
X162335863Y-111733028D02*
X162393006Y-111847314D01*
X162393006Y-111847314D02*
X162393006Y-112018742D01*
X162393006Y-112018742D02*
X162335863Y-112133028D01*
X162335863Y-112133028D02*
X162278720Y-112190171D01*
X162278720Y-112190171D02*
X162164435Y-112247314D01*
X162164435Y-112247314D02*
X161707292Y-112247314D01*
X162793006Y-111618742D02*
X163078720Y-112818742D01*
X163078720Y-112818742D02*
X163307292Y-111961600D01*
X163307292Y-111961600D02*
X163535863Y-112818742D01*
X163535863Y-112818742D02*
X163821578Y-111618742D01*
X164964435Y-112818742D02*
X164564435Y-112247314D01*
X164278721Y-112818742D02*
X164278721Y-111618742D01*
X164278721Y-111618742D02*
X164735864Y-111618742D01*
X164735864Y-111618742D02*
X164850149Y-111675885D01*
X164850149Y-111675885D02*
X164907292Y-111733028D01*
X164907292Y-111733028D02*
X164964435Y-111847314D01*
X164964435Y-111847314D02*
X164964435Y-112018742D01*
X164964435Y-112018742D02*
X164907292Y-112133028D01*
X164907292Y-112133028D02*
X164850149Y-112190171D01*
X164850149Y-112190171D02*
X164735864Y-112247314D01*
X164735864Y-112247314D02*
X164278721Y-112247314D01*
X161650149Y-114693600D02*
X161821578Y-114750742D01*
X161821578Y-114750742D02*
X162107292Y-114750742D01*
X162107292Y-114750742D02*
X162221578Y-114693600D01*
X162221578Y-114693600D02*
X162278720Y-114636457D01*
X162278720Y-114636457D02*
X162335863Y-114522171D01*
X162335863Y-114522171D02*
X162335863Y-114407885D01*
X162335863Y-114407885D02*
X162278720Y-114293600D01*
X162278720Y-114293600D02*
X162221578Y-114236457D01*
X162221578Y-114236457D02*
X162107292Y-114179314D01*
X162107292Y-114179314D02*
X161878720Y-114122171D01*
X161878720Y-114122171D02*
X161764435Y-114065028D01*
X161764435Y-114065028D02*
X161707292Y-114007885D01*
X161707292Y-114007885D02*
X161650149Y-113893600D01*
X161650149Y-113893600D02*
X161650149Y-113779314D01*
X161650149Y-113779314D02*
X161707292Y-113665028D01*
X161707292Y-113665028D02*
X161764435Y-113607885D01*
X161764435Y-113607885D02*
X161878720Y-113550742D01*
X161878720Y-113550742D02*
X162164435Y-113550742D01*
X162164435Y-113550742D02*
X162335863Y-113607885D01*
X162850149Y-114122171D02*
X163250149Y-114122171D01*
X163421577Y-114750742D02*
X162850149Y-114750742D01*
X162850149Y-114750742D02*
X162850149Y-113550742D01*
X162850149Y-113550742D02*
X163421577Y-113550742D01*
X164507291Y-114750742D02*
X163935863Y-114750742D01*
X163935863Y-114750742D02*
X163935863Y-113550742D01*
X165535863Y-114750742D02*
X164850149Y-114750742D01*
X165193006Y-114750742D02*
X165193006Y-113550742D01*
X165193006Y-113550742D02*
X165078720Y-113722171D01*
X165078720Y-113722171D02*
X164964435Y-113836457D01*
X164964435Y-113836457D02*
X164850149Y-113893600D01*
X161650149Y-116625600D02*
X161821578Y-116682742D01*
X161821578Y-116682742D02*
X162107292Y-116682742D01*
X162107292Y-116682742D02*
X162221578Y-116625600D01*
X162221578Y-116625600D02*
X162278720Y-116568457D01*
X162278720Y-116568457D02*
X162335863Y-116454171D01*
X162335863Y-116454171D02*
X162335863Y-116339885D01*
X162335863Y-116339885D02*
X162278720Y-116225600D01*
X162278720Y-116225600D02*
X162221578Y-116168457D01*
X162221578Y-116168457D02*
X162107292Y-116111314D01*
X162107292Y-116111314D02*
X161878720Y-116054171D01*
X161878720Y-116054171D02*
X161764435Y-115997028D01*
X161764435Y-115997028D02*
X161707292Y-115939885D01*
X161707292Y-115939885D02*
X161650149Y-115825600D01*
X161650149Y-115825600D02*
X161650149Y-115711314D01*
X161650149Y-115711314D02*
X161707292Y-115597028D01*
X161707292Y-115597028D02*
X161764435Y-115539885D01*
X161764435Y-115539885D02*
X161878720Y-115482742D01*
X161878720Y-115482742D02*
X162164435Y-115482742D01*
X162164435Y-115482742D02*
X162335863Y-115539885D01*
X162850149Y-116054171D02*
X163250149Y-116054171D01*
X163421577Y-116682742D02*
X162850149Y-116682742D01*
X162850149Y-116682742D02*
X162850149Y-115482742D01*
X162850149Y-115482742D02*
X163421577Y-115482742D01*
X164507291Y-116682742D02*
X163935863Y-116682742D01*
X163935863Y-116682742D02*
X163935863Y-115482742D01*
X164850149Y-115597028D02*
X164907292Y-115539885D01*
X164907292Y-115539885D02*
X165021578Y-115482742D01*
X165021578Y-115482742D02*
X165307292Y-115482742D01*
X165307292Y-115482742D02*
X165421578Y-115539885D01*
X165421578Y-115539885D02*
X165478720Y-115597028D01*
X165478720Y-115597028D02*
X165535863Y-115711314D01*
X165535863Y-115711314D02*
X165535863Y-115825600D01*
X165535863Y-115825600D02*
X165478720Y-115997028D01*
X165478720Y-115997028D02*
X164793006Y-116682742D01*
X164793006Y-116682742D02*
X165535863Y-116682742D01*
X137626742Y-135644136D02*
X138826742Y-135244136D01*
X138826742Y-135244136D02*
X137626742Y-134844136D01*
X138826742Y-134444136D02*
X137626742Y-134444136D01*
X138826742Y-133872707D02*
X137626742Y-133872707D01*
X137626742Y-133872707D02*
X138826742Y-133186993D01*
X138826742Y-133186993D02*
X137626742Y-133186993D01*
X139615885Y-134844136D02*
X139558742Y-134958422D01*
X139558742Y-134958422D02*
X139558742Y-135129850D01*
X139558742Y-135129850D02*
X139615885Y-135301279D01*
X139615885Y-135301279D02*
X139730171Y-135415564D01*
X139730171Y-135415564D02*
X139844457Y-135472707D01*
X139844457Y-135472707D02*
X140073028Y-135529850D01*
X140073028Y-135529850D02*
X140244457Y-135529850D01*
X140244457Y-135529850D02*
X140473028Y-135472707D01*
X140473028Y-135472707D02*
X140587314Y-135415564D01*
X140587314Y-135415564D02*
X140701600Y-135301279D01*
X140701600Y-135301279D02*
X140758742Y-135129850D01*
X140758742Y-135129850D02*
X140758742Y-135015564D01*
X140758742Y-135015564D02*
X140701600Y-134844136D01*
X140701600Y-134844136D02*
X140644457Y-134786993D01*
X140644457Y-134786993D02*
X140244457Y-134786993D01*
X140244457Y-134786993D02*
X140244457Y-135015564D01*
X140758742Y-134272707D02*
X139558742Y-134272707D01*
X139558742Y-134272707D02*
X140758742Y-133586993D01*
X140758742Y-133586993D02*
X139558742Y-133586993D01*
X140758742Y-133015564D02*
X139558742Y-133015564D01*
X139558742Y-133015564D02*
X139558742Y-132729850D01*
X139558742Y-132729850D02*
X139615885Y-132558421D01*
X139615885Y-132558421D02*
X139730171Y-132444136D01*
X139730171Y-132444136D02*
X139844457Y-132386993D01*
X139844457Y-132386993D02*
X140073028Y-132329850D01*
X140073028Y-132329850D02*
X140244457Y-132329850D01*
X140244457Y-132329850D02*
X140473028Y-132386993D01*
X140473028Y-132386993D02*
X140587314Y-132444136D01*
X140587314Y-132444136D02*
X140701600Y-132558421D01*
X140701600Y-132558421D02*
X140758742Y-132729850D01*
X140758742Y-132729850D02*
X140758742Y-133015564D01*
X141490742Y-135644136D02*
X141490742Y-134958422D01*
X142690742Y-135301279D02*
X141490742Y-135301279D01*
X141490742Y-134672707D02*
X142690742Y-133872707D01*
X141490742Y-133872707D02*
X142690742Y-134672707D01*
X144622742Y-134786993D02*
X144051314Y-135186993D01*
X144622742Y-135472707D02*
X143422742Y-135472707D01*
X143422742Y-135472707D02*
X143422742Y-135015564D01*
X143422742Y-135015564D02*
X143479885Y-134901279D01*
X143479885Y-134901279D02*
X143537028Y-134844136D01*
X143537028Y-134844136D02*
X143651314Y-134786993D01*
X143651314Y-134786993D02*
X143822742Y-134786993D01*
X143822742Y-134786993D02*
X143937028Y-134844136D01*
X143937028Y-134844136D02*
X143994171Y-134901279D01*
X143994171Y-134901279D02*
X144051314Y-135015564D01*
X144051314Y-135015564D02*
X144051314Y-135472707D01*
X143422742Y-134386993D02*
X144622742Y-133586993D01*
X143422742Y-133586993D02*
X144622742Y-134386993D01*
D11*
X147834819Y-101933333D02*
X148549104Y-101933333D01*
X148549104Y-101933333D02*
X148691961Y-101980952D01*
X148691961Y-101980952D02*
X148787200Y-102076190D01*
X148787200Y-102076190D02*
X148834819Y-102219047D01*
X148834819Y-102219047D02*
X148834819Y-102314285D01*
X147930057Y-101504761D02*
X147882438Y-101457142D01*
X147882438Y-101457142D02*
X147834819Y-101361904D01*
X147834819Y-101361904D02*
X147834819Y-101123809D01*
X147834819Y-101123809D02*
X147882438Y-101028571D01*
X147882438Y-101028571D02*
X147930057Y-100980952D01*
X147930057Y-100980952D02*
X148025295Y-100933333D01*
X148025295Y-100933333D02*
X148120533Y-100933333D01*
X148120533Y-100933333D02*
X148263390Y-100980952D01*
X148263390Y-100980952D02*
X148834819Y-101552380D01*
X148834819Y-101552380D02*
X148834819Y-100933333D01*
X121586666Y-132804819D02*
X121586666Y-133519104D01*
X121586666Y-133519104D02*
X121539047Y-133661961D01*
X121539047Y-133661961D02*
X121443809Y-133757200D01*
X121443809Y-133757200D02*
X121300952Y-133804819D01*
X121300952Y-133804819D02*
X121205714Y-133804819D01*
X122539047Y-132804819D02*
X122062857Y-132804819D01*
X122062857Y-132804819D02*
X122015238Y-133281009D01*
X122015238Y-133281009D02*
X122062857Y-133233390D01*
X122062857Y-133233390D02*
X122158095Y-133185771D01*
X122158095Y-133185771D02*
X122396190Y-133185771D01*
X122396190Y-133185771D02*
X122491428Y-133233390D01*
X122491428Y-133233390D02*
X122539047Y-133281009D01*
X122539047Y-133281009D02*
X122586666Y-133376247D01*
X122586666Y-133376247D02*
X122586666Y-133614342D01*
X122586666Y-133614342D02*
X122539047Y-133709580D01*
X122539047Y-133709580D02*
X122491428Y-133757200D01*
X122491428Y-133757200D02*
X122396190Y-133804819D01*
X122396190Y-133804819D02*
X122158095Y-133804819D01*
X122158095Y-133804819D02*
X122062857Y-133757200D01*
X122062857Y-133757200D02*
X122015238Y-133709580D01*
X122063809Y-125394819D02*
X122063809Y-124394819D01*
X122063809Y-124394819D02*
X122444761Y-124394819D01*
X122444761Y-124394819D02*
X122539999Y-124442438D01*
X122539999Y-124442438D02*
X122587618Y-124490057D01*
X122587618Y-124490057D02*
X122635237Y-124585295D01*
X122635237Y-124585295D02*
X122635237Y-124728152D01*
X122635237Y-124728152D02*
X122587618Y-124823390D01*
X122587618Y-124823390D02*
X122539999Y-124871009D01*
X122539999Y-124871009D02*
X122444761Y-124918628D01*
X122444761Y-124918628D02*
X122063809Y-124918628D01*
X123206666Y-125394819D02*
X123111428Y-125347200D01*
X123111428Y-125347200D02*
X123063809Y-125299580D01*
X123063809Y-125299580D02*
X123016190Y-125204342D01*
X123016190Y-125204342D02*
X123016190Y-124918628D01*
X123016190Y-124918628D02*
X123063809Y-124823390D01*
X123063809Y-124823390D02*
X123111428Y-124775771D01*
X123111428Y-124775771D02*
X123206666Y-124728152D01*
X123206666Y-124728152D02*
X123349523Y-124728152D01*
X123349523Y-124728152D02*
X123444761Y-124775771D01*
X123444761Y-124775771D02*
X123492380Y-124823390D01*
X123492380Y-124823390D02*
X123539999Y-124918628D01*
X123539999Y-124918628D02*
X123539999Y-125204342D01*
X123539999Y-125204342D02*
X123492380Y-125299580D01*
X123492380Y-125299580D02*
X123444761Y-125347200D01*
X123444761Y-125347200D02*
X123349523Y-125394819D01*
X123349523Y-125394819D02*
X123206666Y-125394819D01*
X123825714Y-124728152D02*
X124206666Y-124728152D01*
X123968571Y-124394819D02*
X123968571Y-125251961D01*
X123968571Y-125251961D02*
X124016190Y-125347200D01*
X124016190Y-125347200D02*
X124111428Y-125394819D01*
X124111428Y-125394819D02*
X124206666Y-125394819D01*
X124920952Y-125347200D02*
X124825714Y-125394819D01*
X124825714Y-125394819D02*
X124635238Y-125394819D01*
X124635238Y-125394819D02*
X124540000Y-125347200D01*
X124540000Y-125347200D02*
X124492381Y-125251961D01*
X124492381Y-125251961D02*
X124492381Y-124871009D01*
X124492381Y-124871009D02*
X124540000Y-124775771D01*
X124540000Y-124775771D02*
X124635238Y-124728152D01*
X124635238Y-124728152D02*
X124825714Y-124728152D01*
X124825714Y-124728152D02*
X124920952Y-124775771D01*
X124920952Y-124775771D02*
X124968571Y-124871009D01*
X124968571Y-124871009D02*
X124968571Y-124966247D01*
X124968571Y-124966247D02*
X124492381Y-125061485D01*
X125397143Y-124728152D02*
X125397143Y-125394819D01*
X125397143Y-124823390D02*
X125444762Y-124775771D01*
X125444762Y-124775771D02*
X125540000Y-124728152D01*
X125540000Y-124728152D02*
X125682857Y-124728152D01*
X125682857Y-124728152D02*
X125778095Y-124775771D01*
X125778095Y-124775771D02*
X125825714Y-124871009D01*
X125825714Y-124871009D02*
X125825714Y-125394819D01*
X126159048Y-124728152D02*
X126540000Y-124728152D01*
X126301905Y-124394819D02*
X126301905Y-125251961D01*
X126301905Y-125251961D02*
X126349524Y-125347200D01*
X126349524Y-125347200D02*
X126444762Y-125394819D01*
X126444762Y-125394819D02*
X126540000Y-125394819D01*
X126873334Y-125394819D02*
X126873334Y-124728152D01*
X126873334Y-124394819D02*
X126825715Y-124442438D01*
X126825715Y-124442438D02*
X126873334Y-124490057D01*
X126873334Y-124490057D02*
X126920953Y-124442438D01*
X126920953Y-124442438D02*
X126873334Y-124394819D01*
X126873334Y-124394819D02*
X126873334Y-124490057D01*
X127492381Y-125394819D02*
X127397143Y-125347200D01*
X127397143Y-125347200D02*
X127349524Y-125299580D01*
X127349524Y-125299580D02*
X127301905Y-125204342D01*
X127301905Y-125204342D02*
X127301905Y-124918628D01*
X127301905Y-124918628D02*
X127349524Y-124823390D01*
X127349524Y-124823390D02*
X127397143Y-124775771D01*
X127397143Y-124775771D02*
X127492381Y-124728152D01*
X127492381Y-124728152D02*
X127635238Y-124728152D01*
X127635238Y-124728152D02*
X127730476Y-124775771D01*
X127730476Y-124775771D02*
X127778095Y-124823390D01*
X127778095Y-124823390D02*
X127825714Y-124918628D01*
X127825714Y-124918628D02*
X127825714Y-125204342D01*
X127825714Y-125204342D02*
X127778095Y-125299580D01*
X127778095Y-125299580D02*
X127730476Y-125347200D01*
X127730476Y-125347200D02*
X127635238Y-125394819D01*
X127635238Y-125394819D02*
X127492381Y-125394819D01*
X128254286Y-125394819D02*
X128254286Y-124728152D01*
X128254286Y-124823390D02*
X128301905Y-124775771D01*
X128301905Y-124775771D02*
X128397143Y-124728152D01*
X128397143Y-124728152D02*
X128540000Y-124728152D01*
X128540000Y-124728152D02*
X128635238Y-124775771D01*
X128635238Y-124775771D02*
X128682857Y-124871009D01*
X128682857Y-124871009D02*
X128682857Y-125394819D01*
X128682857Y-124871009D02*
X128730476Y-124775771D01*
X128730476Y-124775771D02*
X128825714Y-124728152D01*
X128825714Y-124728152D02*
X128968571Y-124728152D01*
X128968571Y-124728152D02*
X129063810Y-124775771D01*
X129063810Y-124775771D02*
X129111429Y-124871009D01*
X129111429Y-124871009D02*
X129111429Y-125394819D01*
X129968571Y-125347200D02*
X129873333Y-125394819D01*
X129873333Y-125394819D02*
X129682857Y-125394819D01*
X129682857Y-125394819D02*
X129587619Y-125347200D01*
X129587619Y-125347200D02*
X129540000Y-125251961D01*
X129540000Y-125251961D02*
X129540000Y-124871009D01*
X129540000Y-124871009D02*
X129587619Y-124775771D01*
X129587619Y-124775771D02*
X129682857Y-124728152D01*
X129682857Y-124728152D02*
X129873333Y-124728152D01*
X129873333Y-124728152D02*
X129968571Y-124775771D01*
X129968571Y-124775771D02*
X130016190Y-124871009D01*
X130016190Y-124871009D02*
X130016190Y-124966247D01*
X130016190Y-124966247D02*
X129540000Y-125061485D01*
X130301905Y-124728152D02*
X130682857Y-124728152D01*
X130444762Y-124394819D02*
X130444762Y-125251961D01*
X130444762Y-125251961D02*
X130492381Y-125347200D01*
X130492381Y-125347200D02*
X130587619Y-125394819D01*
X130587619Y-125394819D02*
X130682857Y-125394819D01*
X131397143Y-125347200D02*
X131301905Y-125394819D01*
X131301905Y-125394819D02*
X131111429Y-125394819D01*
X131111429Y-125394819D02*
X131016191Y-125347200D01*
X131016191Y-125347200D02*
X130968572Y-125251961D01*
X130968572Y-125251961D02*
X130968572Y-124871009D01*
X130968572Y-124871009D02*
X131016191Y-124775771D01*
X131016191Y-124775771D02*
X131111429Y-124728152D01*
X131111429Y-124728152D02*
X131301905Y-124728152D01*
X131301905Y-124728152D02*
X131397143Y-124775771D01*
X131397143Y-124775771D02*
X131444762Y-124871009D01*
X131444762Y-124871009D02*
X131444762Y-124966247D01*
X131444762Y-124966247D02*
X130968572Y-125061485D01*
X131873334Y-125394819D02*
X131873334Y-124728152D01*
X131873334Y-124918628D02*
X131920953Y-124823390D01*
X131920953Y-124823390D02*
X131968572Y-124775771D01*
X131968572Y-124775771D02*
X132063810Y-124728152D01*
X132063810Y-124728152D02*
X132159048Y-124728152D01*
X105074819Y-122253333D02*
X105789104Y-122253333D01*
X105789104Y-122253333D02*
X105931961Y-122300952D01*
X105931961Y-122300952D02*
X106027200Y-122396190D01*
X106027200Y-122396190D02*
X106074819Y-122539047D01*
X106074819Y-122539047D02*
X106074819Y-122634285D01*
X106074819Y-121253333D02*
X106074819Y-121824761D01*
X106074819Y-121539047D02*
X105074819Y-121539047D01*
X105074819Y-121539047D02*
X105217676Y-121634285D01*
X105217676Y-121634285D02*
X105312914Y-121729523D01*
X105312914Y-121729523D02*
X105360533Y-121824761D01*
X107783333Y-130544819D02*
X107450000Y-130068628D01*
X107211905Y-130544819D02*
X107211905Y-129544819D01*
X107211905Y-129544819D02*
X107592857Y-129544819D01*
X107592857Y-129544819D02*
X107688095Y-129592438D01*
X107688095Y-129592438D02*
X107735714Y-129640057D01*
X107735714Y-129640057D02*
X107783333Y-129735295D01*
X107783333Y-129735295D02*
X107783333Y-129878152D01*
X107783333Y-129878152D02*
X107735714Y-129973390D01*
X107735714Y-129973390D02*
X107688095Y-130021009D01*
X107688095Y-130021009D02*
X107592857Y-130068628D01*
X107592857Y-130068628D02*
X107211905Y-130068628D01*
X108164286Y-129640057D02*
X108211905Y-129592438D01*
X108211905Y-129592438D02*
X108307143Y-129544819D01*
X108307143Y-129544819D02*
X108545238Y-129544819D01*
X108545238Y-129544819D02*
X108640476Y-129592438D01*
X108640476Y-129592438D02*
X108688095Y-129640057D01*
X108688095Y-129640057D02*
X108735714Y-129735295D01*
X108735714Y-129735295D02*
X108735714Y-129830533D01*
X108735714Y-129830533D02*
X108688095Y-129973390D01*
X108688095Y-129973390D02*
X108116667Y-130544819D01*
X108116667Y-130544819D02*
X108735714Y-130544819D01*
X116328333Y-126904819D02*
X115995000Y-126428628D01*
X115756905Y-126904819D02*
X115756905Y-125904819D01*
X115756905Y-125904819D02*
X116137857Y-125904819D01*
X116137857Y-125904819D02*
X116233095Y-125952438D01*
X116233095Y-125952438D02*
X116280714Y-126000057D01*
X116280714Y-126000057D02*
X116328333Y-126095295D01*
X116328333Y-126095295D02*
X116328333Y-126238152D01*
X116328333Y-126238152D02*
X116280714Y-126333390D01*
X116280714Y-126333390D02*
X116233095Y-126381009D01*
X116233095Y-126381009D02*
X116137857Y-126428628D01*
X116137857Y-126428628D02*
X115756905Y-126428628D01*
X117280714Y-126904819D02*
X116709286Y-126904819D01*
X116995000Y-126904819D02*
X116995000Y-125904819D01*
X116995000Y-125904819D02*
X116899762Y-126047676D01*
X116899762Y-126047676D02*
X116804524Y-126142914D01*
X116804524Y-126142914D02*
X116709286Y-126190533D01*
X154606666Y-121594819D02*
X154606666Y-122309104D01*
X154606666Y-122309104D02*
X154559047Y-122451961D01*
X154559047Y-122451961D02*
X154463809Y-122547200D01*
X154463809Y-122547200D02*
X154320952Y-122594819D01*
X154320952Y-122594819D02*
X154225714Y-122594819D01*
X155511428Y-121928152D02*
X155511428Y-122594819D01*
X155273333Y-121547200D02*
X155035238Y-122261485D01*
X155035238Y-122261485D02*
X155654285Y-122261485D01*
X150584819Y-133627143D02*
X150584819Y-134103333D01*
X150584819Y-134103333D02*
X151061009Y-134150952D01*
X151061009Y-134150952D02*
X151013390Y-134103333D01*
X151013390Y-134103333D02*
X150965771Y-134008095D01*
X150965771Y-134008095D02*
X150965771Y-133770000D01*
X150965771Y-133770000D02*
X151013390Y-133674762D01*
X151013390Y-133674762D02*
X151061009Y-133627143D01*
X151061009Y-133627143D02*
X151156247Y-133579524D01*
X151156247Y-133579524D02*
X151394342Y-133579524D01*
X151394342Y-133579524D02*
X151489580Y-133627143D01*
X151489580Y-133627143D02*
X151537200Y-133674762D01*
X151537200Y-133674762D02*
X151584819Y-133770000D01*
X151584819Y-133770000D02*
X151584819Y-134008095D01*
X151584819Y-134008095D02*
X151537200Y-134103333D01*
X151537200Y-134103333D02*
X151489580Y-134150952D01*
X150918152Y-133246190D02*
X151584819Y-133008095D01*
X151584819Y-133008095D02*
X150918152Y-132770000D01*
X151584819Y-131103333D02*
X151584819Y-131674761D01*
X151584819Y-131389047D02*
X150584819Y-131389047D01*
X150584819Y-131389047D02*
X150727676Y-131484285D01*
X150727676Y-131484285D02*
X150822914Y-131579523D01*
X150822914Y-131579523D02*
X150870533Y-131674761D01*
X151299104Y-130722380D02*
X151299104Y-130246190D01*
X151584819Y-130817618D02*
X150584819Y-130484285D01*
X150584819Y-130484285D02*
X151584819Y-130150952D01*
X151584819Y-129055713D02*
X150584819Y-129055713D01*
X150584819Y-129055713D02*
X151299104Y-128722380D01*
X151299104Y-128722380D02*
X150584819Y-128389047D01*
X150584819Y-128389047D02*
X151584819Y-128389047D01*
X151584819Y-127912856D02*
X150918152Y-127912856D01*
X150584819Y-127912856D02*
X150632438Y-127960475D01*
X150632438Y-127960475D02*
X150680057Y-127912856D01*
X150680057Y-127912856D02*
X150632438Y-127865237D01*
X150632438Y-127865237D02*
X150584819Y-127912856D01*
X150584819Y-127912856D02*
X150680057Y-127912856D01*
X150918152Y-127436666D02*
X151584819Y-127436666D01*
X151013390Y-127436666D02*
X150965771Y-127389047D01*
X150965771Y-127389047D02*
X150918152Y-127293809D01*
X150918152Y-127293809D02*
X150918152Y-127150952D01*
X150918152Y-127150952D02*
X150965771Y-127055714D01*
X150965771Y-127055714D02*
X151061009Y-127008095D01*
X151061009Y-127008095D02*
X151584819Y-127008095D01*
X151584819Y-126531904D02*
X150918152Y-126531904D01*
X150584819Y-126531904D02*
X150632438Y-126579523D01*
X150632438Y-126579523D02*
X150680057Y-126531904D01*
X150680057Y-126531904D02*
X150632438Y-126484285D01*
X150632438Y-126484285D02*
X150584819Y-126531904D01*
X150584819Y-126531904D02*
X150680057Y-126531904D01*
X151584819Y-126055714D02*
X150584819Y-126055714D01*
X150965771Y-126055714D02*
X150918152Y-125960476D01*
X150918152Y-125960476D02*
X150918152Y-125770000D01*
X150918152Y-125770000D02*
X150965771Y-125674762D01*
X150965771Y-125674762D02*
X151013390Y-125627143D01*
X151013390Y-125627143D02*
X151108628Y-125579524D01*
X151108628Y-125579524D02*
X151394342Y-125579524D01*
X151394342Y-125579524D02*
X151489580Y-125627143D01*
X151489580Y-125627143D02*
X151537200Y-125674762D01*
X151537200Y-125674762D02*
X151584819Y-125770000D01*
X151584819Y-125770000D02*
X151584819Y-125960476D01*
X151584819Y-125960476D02*
X151537200Y-126055714D01*
X151584819Y-125008095D02*
X151537200Y-125103333D01*
X151537200Y-125103333D02*
X151489580Y-125150952D01*
X151489580Y-125150952D02*
X151394342Y-125198571D01*
X151394342Y-125198571D02*
X151108628Y-125198571D01*
X151108628Y-125198571D02*
X151013390Y-125150952D01*
X151013390Y-125150952D02*
X150965771Y-125103333D01*
X150965771Y-125103333D02*
X150918152Y-125008095D01*
X150918152Y-125008095D02*
X150918152Y-124865238D01*
X150918152Y-124865238D02*
X150965771Y-124770000D01*
X150965771Y-124770000D02*
X151013390Y-124722381D01*
X151013390Y-124722381D02*
X151108628Y-124674762D01*
X151108628Y-124674762D02*
X151394342Y-124674762D01*
X151394342Y-124674762D02*
X151489580Y-124722381D01*
X151489580Y-124722381D02*
X151537200Y-124770000D01*
X151537200Y-124770000D02*
X151584819Y-124865238D01*
X151584819Y-124865238D02*
X151584819Y-125008095D01*
X151584819Y-124103333D02*
X151537200Y-124198571D01*
X151537200Y-124198571D02*
X151489580Y-124246190D01*
X151489580Y-124246190D02*
X151394342Y-124293809D01*
X151394342Y-124293809D02*
X151108628Y-124293809D01*
X151108628Y-124293809D02*
X151013390Y-124246190D01*
X151013390Y-124246190D02*
X150965771Y-124198571D01*
X150965771Y-124198571D02*
X150918152Y-124103333D01*
X150918152Y-124103333D02*
X150918152Y-123960476D01*
X150918152Y-123960476D02*
X150965771Y-123865238D01*
X150965771Y-123865238D02*
X151013390Y-123817619D01*
X151013390Y-123817619D02*
X151108628Y-123770000D01*
X151108628Y-123770000D02*
X151394342Y-123770000D01*
X151394342Y-123770000D02*
X151489580Y-123817619D01*
X151489580Y-123817619D02*
X151537200Y-123865238D01*
X151537200Y-123865238D02*
X151584819Y-123960476D01*
X151584819Y-123960476D02*
X151584819Y-124103333D01*
X151537200Y-123389047D02*
X151584819Y-123293809D01*
X151584819Y-123293809D02*
X151584819Y-123103333D01*
X151584819Y-123103333D02*
X151537200Y-123008095D01*
X151537200Y-123008095D02*
X151441961Y-122960476D01*
X151441961Y-122960476D02*
X151394342Y-122960476D01*
X151394342Y-122960476D02*
X151299104Y-123008095D01*
X151299104Y-123008095D02*
X151251485Y-123103333D01*
X151251485Y-123103333D02*
X151251485Y-123246190D01*
X151251485Y-123246190D02*
X151203866Y-123341428D01*
X151203866Y-123341428D02*
X151108628Y-123389047D01*
X151108628Y-123389047D02*
X151061009Y-123389047D01*
X151061009Y-123389047D02*
X150965771Y-123341428D01*
X150965771Y-123341428D02*
X150918152Y-123246190D01*
X150918152Y-123246190D02*
X150918152Y-123103333D01*
X150918152Y-123103333D02*
X150965771Y-123008095D01*
X150918152Y-122674761D02*
X150918152Y-122293809D01*
X150584819Y-122531904D02*
X151441961Y-122531904D01*
X151441961Y-122531904D02*
X151537200Y-122484285D01*
X151537200Y-122484285D02*
X151584819Y-122389047D01*
X151584819Y-122389047D02*
X151584819Y-122293809D01*
X134286666Y-132804819D02*
X134286666Y-133519104D01*
X134286666Y-133519104D02*
X134239047Y-133661961D01*
X134239047Y-133661961D02*
X134143809Y-133757200D01*
X134143809Y-133757200D02*
X134000952Y-133804819D01*
X134000952Y-133804819D02*
X133905714Y-133804819D01*
X134667619Y-132804819D02*
X135286666Y-132804819D01*
X135286666Y-132804819D02*
X134953333Y-133185771D01*
X134953333Y-133185771D02*
X135096190Y-133185771D01*
X135096190Y-133185771D02*
X135191428Y-133233390D01*
X135191428Y-133233390D02*
X135239047Y-133281009D01*
X135239047Y-133281009D02*
X135286666Y-133376247D01*
X135286666Y-133376247D02*
X135286666Y-133614342D01*
X135286666Y-133614342D02*
X135239047Y-133709580D01*
X135239047Y-133709580D02*
X135191428Y-133757200D01*
X135191428Y-133757200D02*
X135096190Y-133804819D01*
X135096190Y-133804819D02*
X134810476Y-133804819D01*
X134810476Y-133804819D02*
X134715238Y-133757200D01*
X134715238Y-133757200D02*
X134667619Y-133709580D01*
X137695714Y-124394819D02*
X138267142Y-124394819D01*
X137981428Y-125394819D02*
X137981428Y-124394819D01*
X138933809Y-124871009D02*
X138600476Y-124871009D01*
X138600476Y-125394819D02*
X138600476Y-124394819D01*
X138600476Y-124394819D02*
X139076666Y-124394819D01*
X139457619Y-125013866D02*
X140219524Y-125013866D01*
X141171904Y-125394819D02*
X140695714Y-125394819D01*
X140695714Y-125394819D02*
X140695714Y-124394819D01*
X141505238Y-124394819D02*
X141505238Y-125204342D01*
X141505238Y-125204342D02*
X141552857Y-125299580D01*
X141552857Y-125299580D02*
X141600476Y-125347200D01*
X141600476Y-125347200D02*
X141695714Y-125394819D01*
X141695714Y-125394819D02*
X141886190Y-125394819D01*
X141886190Y-125394819D02*
X141981428Y-125347200D01*
X141981428Y-125347200D02*
X142029047Y-125299580D01*
X142029047Y-125299580D02*
X142076666Y-125204342D01*
X142076666Y-125204342D02*
X142076666Y-124394819D01*
X142552857Y-125394819D02*
X142552857Y-124394819D01*
X142552857Y-124394819D02*
X143124285Y-125394819D01*
X143124285Y-125394819D02*
X143124285Y-124394819D01*
X143552857Y-125109104D02*
X144029047Y-125109104D01*
X143457619Y-125394819D02*
X143790952Y-124394819D01*
X143790952Y-124394819D02*
X144124285Y-125394819D01*
X160484819Y-112073333D02*
X161199104Y-112073333D01*
X161199104Y-112073333D02*
X161341961Y-112120952D01*
X161341961Y-112120952D02*
X161437200Y-112216190D01*
X161437200Y-112216190D02*
X161484819Y-112359047D01*
X161484819Y-112359047D02*
X161484819Y-112454285D01*
X160484819Y-111168571D02*
X160484819Y-111359047D01*
X160484819Y-111359047D02*
X160532438Y-111454285D01*
X160532438Y-111454285D02*
X160580057Y-111501904D01*
X160580057Y-111501904D02*
X160722914Y-111597142D01*
X160722914Y-111597142D02*
X160913390Y-111644761D01*
X160913390Y-111644761D02*
X161294342Y-111644761D01*
X161294342Y-111644761D02*
X161389580Y-111597142D01*
X161389580Y-111597142D02*
X161437200Y-111549523D01*
X161437200Y-111549523D02*
X161484819Y-111454285D01*
X161484819Y-111454285D02*
X161484819Y-111263809D01*
X161484819Y-111263809D02*
X161437200Y-111168571D01*
X161437200Y-111168571D02*
X161389580Y-111120952D01*
X161389580Y-111120952D02*
X161294342Y-111073333D01*
X161294342Y-111073333D02*
X161056247Y-111073333D01*
X161056247Y-111073333D02*
X160961009Y-111120952D01*
X160961009Y-111120952D02*
X160913390Y-111168571D01*
X160913390Y-111168571D02*
X160865771Y-111263809D01*
X160865771Y-111263809D02*
X160865771Y-111454285D01*
X160865771Y-111454285D02*
X160913390Y-111549523D01*
X160913390Y-111549523D02*
X160961009Y-111597142D01*
X160961009Y-111597142D02*
X161056247Y-111644761D01*
D12*
%TO.C,J2*%
X147380000Y-100270000D02*
X147380000Y-101600000D01*
X146050000Y-100270000D02*
X147380000Y-100270000D01*
X144780000Y-100270000D02*
X116780000Y-100270000D01*
X144780000Y-100270000D02*
X144780000Y-102930000D01*
X116780000Y-100270000D02*
X116780000Y-102930000D01*
X144780000Y-102930000D02*
X116780000Y-102930000D01*
%TO.C,J5*%
X132390000Y-132290000D02*
X132390000Y-131040000D01*
X132100000Y-132000000D02*
X132100000Y-126030000D01*
X132100000Y-126030000D02*
X121980000Y-126030000D01*
X132090000Y-131990000D02*
X132090000Y-131240000D01*
X132090000Y-131240000D02*
X130290000Y-131240000D01*
X132090000Y-129740000D02*
X131340000Y-129740000D01*
X131340000Y-129740000D02*
X131340000Y-126790000D01*
X131340000Y-126790000D02*
X127040000Y-126790000D01*
X131140000Y-132290000D02*
X132390000Y-132290000D01*
X130290000Y-131990000D02*
X132090000Y-131990000D01*
X130290000Y-131240000D02*
X130290000Y-131990000D01*
X128790000Y-131990000D02*
X128790000Y-131240000D01*
X128790000Y-131240000D02*
X125290000Y-131240000D01*
X125290000Y-131990000D02*
X128790000Y-131990000D01*
X125290000Y-131240000D02*
X125290000Y-131990000D01*
X123790000Y-131990000D02*
X123790000Y-131240000D01*
X123790000Y-131240000D02*
X121990000Y-131240000D01*
X122740000Y-129740000D02*
X122740000Y-126790000D01*
X122740000Y-126790000D02*
X127040000Y-126790000D01*
X121990000Y-131990000D02*
X123790000Y-131990000D01*
X121990000Y-131240000D02*
X121990000Y-131990000D01*
X121990000Y-129740000D02*
X122740000Y-129740000D01*
X121980000Y-132000000D02*
X132100000Y-132000000D01*
X121980000Y-126030000D02*
X121980000Y-132000000D01*
%TO.C,J1*%
X106620000Y-123250000D02*
X106620000Y-121920000D01*
X107950000Y-123250000D02*
X106620000Y-123250000D01*
X109220000Y-123250000D02*
X147380000Y-123250000D01*
X109220000Y-123250000D02*
X109220000Y-120590000D01*
X147380000Y-123250000D02*
X147380000Y-120590000D01*
X109220000Y-120590000D02*
X147380000Y-120590000D01*
%TO.C,R2*%
X108677064Y-129180000D02*
X107222936Y-129180000D01*
X108677064Y-127360000D02*
X107222936Y-127360000D01*
%TO.C,R1*%
X115767936Y-127360000D02*
X117222064Y-127360000D01*
X115767936Y-129180000D02*
X117222064Y-129180000D01*
%TO.C,J4*%
X153610000Y-123140000D02*
X154940000Y-123140000D01*
X153610000Y-124470000D02*
X153610000Y-123140000D01*
X153610000Y-125740000D02*
X153610000Y-133420000D01*
X153610000Y-125740000D02*
X156270000Y-125740000D01*
X153610000Y-133420000D02*
X156270000Y-133420000D01*
X156270000Y-125740000D02*
X156270000Y-133420000D01*
%TO.C,J3*%
X147510000Y-132290000D02*
X147510000Y-131040000D01*
X147220000Y-132000000D02*
X147220000Y-126030000D01*
X147220000Y-126030000D02*
X134600000Y-126030000D01*
X147210000Y-131990000D02*
X147210000Y-131240000D01*
X147210000Y-131240000D02*
X145410000Y-131240000D01*
X147210000Y-129740000D02*
X146460000Y-129740000D01*
X146460000Y-129740000D02*
X146460000Y-126790000D01*
X146460000Y-126790000D02*
X140910000Y-126790000D01*
X146260000Y-132290000D02*
X147510000Y-132290000D01*
X145410000Y-131990000D02*
X147210000Y-131990000D01*
X145410000Y-131240000D02*
X145410000Y-131990000D01*
X143910000Y-131990000D02*
X143910000Y-131240000D01*
X143910000Y-131240000D02*
X137910000Y-131240000D01*
X137910000Y-131990000D02*
X143910000Y-131990000D01*
X137910000Y-131240000D02*
X137910000Y-131990000D01*
X136410000Y-131990000D02*
X136410000Y-131240000D01*
X136410000Y-131240000D02*
X134610000Y-131240000D01*
X135360000Y-129740000D02*
X135360000Y-126790000D01*
X135360000Y-126790000D02*
X140910000Y-126790000D01*
X134610000Y-131990000D02*
X136410000Y-131990000D01*
X134610000Y-131240000D02*
X134610000Y-131990000D01*
X134610000Y-129740000D02*
X135360000Y-129740000D01*
X134600000Y-132000000D02*
X147220000Y-132000000D01*
X134600000Y-126030000D02*
X134600000Y-132000000D01*
%TO.C,J6*%
X160230000Y-102640000D02*
X158980000Y-102640000D01*
X159940000Y-102930000D02*
X153970000Y-102930000D01*
X153970000Y-102930000D02*
X153970000Y-120550000D01*
X159930000Y-102940000D02*
X159180000Y-102940000D01*
X159180000Y-102940000D02*
X159180000Y-104740000D01*
X157680000Y-102940000D02*
X157680000Y-103690000D01*
X157680000Y-103690000D02*
X156340000Y-103690000D01*
X160230000Y-103890000D02*
X160230000Y-102640000D01*
X159930000Y-104740000D02*
X159930000Y-102940000D01*
X159180000Y-104740000D02*
X159930000Y-104740000D01*
X159930000Y-106240000D02*
X159180000Y-106240000D01*
X159180000Y-106240000D02*
X159180000Y-117240000D01*
X154730000Y-111740000D02*
X154730000Y-104750000D01*
X159930000Y-117240000D02*
X159930000Y-106240000D01*
X159180000Y-117240000D02*
X159930000Y-117240000D01*
X159930000Y-118740000D02*
X159180000Y-118740000D01*
X159180000Y-118740000D02*
X159180000Y-120540000D01*
X157680000Y-119790000D02*
X154730000Y-119790000D01*
X154730000Y-119790000D02*
X154730000Y-111740000D01*
X159930000Y-120540000D02*
X159930000Y-118740000D01*
X159180000Y-120540000D02*
X159930000Y-120540000D01*
X157680000Y-120540000D02*
X157680000Y-119790000D01*
X159940000Y-120550000D02*
X159940000Y-102930000D01*
X153970000Y-120550000D02*
X159940000Y-120550000D01*
%TD*%
M02*
