%TF.GenerationSoftware,KiCad,Pcbnew,7.0.7*%
%TF.CreationDate,2024-04-28T08:46:17+01:00*%
%TF.ProjectId,LRF45,4c524634-352e-46b6-9963-61645f706362,rev?*%
%TF.SameCoordinates,Original*%
%TF.FileFunction,Copper,L1,Top*%
%TF.FilePolarity,Positive*%
%FSLAX46Y46*%
G04 Gerber Fmt 4.6, Leading zero omitted, Abs format (unit mm)*
G04 Created by KiCad (PCBNEW 7.0.7) date 2024-04-28 08:46:17*
%MOMM*%
%LPD*%
G01*
G04 APERTURE LIST*
G04 Aperture macros list*
%AMRoundRect*
0 Rectangle with rounded corners*
0 $1 Rounding radius*
0 $2 $3 $4 $5 $6 $7 $8 $9 X,Y pos of 4 corners*
0 Add a 4 corners polygon primitive as box body*
4,1,4,$2,$3,$4,$5,$6,$7,$8,$9,$2,$3,0*
0 Add four circle primitives for the rounded corners*
1,1,$1+$1,$2,$3*
1,1,$1+$1,$4,$5*
1,1,$1+$1,$6,$7*
1,1,$1+$1,$8,$9*
0 Add four rect primitives between the rounded corners*
20,1,$1+$1,$2,$3,$4,$5,0*
20,1,$1+$1,$4,$5,$6,$7,0*
20,1,$1+$1,$6,$7,$8,$9,0*
20,1,$1+$1,$8,$9,$2,$3,0*%
G04 Aperture macros list end*
%TA.AperFunction,ComponentPad*%
%ADD10R,1.700000X1.700000*%
%TD*%
%TA.AperFunction,ComponentPad*%
%ADD11O,1.700000X1.700000*%
%TD*%
%TA.AperFunction,ComponentPad*%
%ADD12RoundRect,0.250000X0.600000X0.725000X-0.600000X0.725000X-0.600000X-0.725000X0.600000X-0.725000X0*%
%TD*%
%TA.AperFunction,ComponentPad*%
%ADD13O,1.700000X1.950000*%
%TD*%
%TA.AperFunction,SMDPad,CuDef*%
%ADD14RoundRect,0.250000X0.312500X0.625000X-0.312500X0.625000X-0.312500X-0.625000X0.312500X-0.625000X0*%
%TD*%
%TA.AperFunction,SMDPad,CuDef*%
%ADD15RoundRect,0.250000X-0.312500X-0.625000X0.312500X-0.625000X0.312500X0.625000X-0.312500X0.625000X0*%
%TD*%
%TA.AperFunction,ComponentPad*%
%ADD16RoundRect,0.250000X-0.725000X0.600000X-0.725000X-0.600000X0.725000X-0.600000X0.725000X0.600000X0*%
%TD*%
%TA.AperFunction,ComponentPad*%
%ADD17O,1.950000X1.700000*%
%TD*%
%TA.AperFunction,ViaPad*%
%ADD18C,0.800000*%
%TD*%
%TA.AperFunction,Conductor*%
%ADD19C,0.250000*%
%TD*%
G04 APERTURE END LIST*
D10*
%TO.P,J2,1,Pin_1*%
%TO.N,unconnected-(J2-Pin_1-Pad1)*%
X146050000Y-101600000D03*
D11*
%TO.P,J2,2,Pin_2*%
%TO.N,unconnected-(J2-Pin_2-Pad2)*%
X143510000Y-101600000D03*
%TO.P,J2,3,Pin_3*%
%TO.N,unconnected-(J2-Pin_3-Pad3)*%
X140970000Y-101600000D03*
%TO.P,J2,4,Pin_4*%
%TO.N,unconnected-(J2-Pin_4-Pad4)*%
X138430000Y-101600000D03*
%TO.P,J2,5,Pin_5*%
%TO.N,Net-(J2-Pin_5)*%
X135890000Y-101600000D03*
%TO.P,J2,6,Pin_6*%
%TO.N,Net-(J2-Pin_6)*%
X133350000Y-101600000D03*
%TO.P,J2,7,Pin_7*%
%TO.N,unconnected-(J2-Pin_7-Pad7)*%
X130810000Y-101600000D03*
%TO.P,J2,8,Pin_8*%
%TO.N,unconnected-(J2-Pin_8-Pad8)*%
X128270000Y-101600000D03*
%TO.P,J2,9,Pin_9*%
%TO.N,unconnected-(J2-Pin_9-Pad9)*%
X125730000Y-101600000D03*
%TO.P,J2,10,Pin_10*%
%TO.N,unconnected-(J2-Pin_10-Pad10)*%
X123190000Y-101600000D03*
%TO.P,J2,11,Pin_11*%
%TO.N,Net-(J2-Pin_11)*%
X120650000Y-101600000D03*
%TO.P,J2,12,Pin_12*%
%TO.N,Net-(J2-Pin_12)*%
X118110000Y-101600000D03*
%TD*%
D12*
%TO.P,J5,1,Pin_1*%
%TO.N,Net-(J1-Pin_6)*%
X129540000Y-129540000D03*
D13*
%TO.P,J5,2,Pin_2*%
%TO.N,Net-(J1-Pin_4)*%
X127040000Y-129540000D03*
%TO.P,J5,3,Pin_3*%
%TO.N,Net-(J1-Pin_2)*%
X124540000Y-129540000D03*
%TD*%
D10*
%TO.P,J1,1,Pin_1*%
%TO.N,unconnected-(J1-Pin_1-Pad1)*%
X107950000Y-121920000D03*
D11*
%TO.P,J1,2,Pin_2*%
%TO.N,Net-(J1-Pin_2)*%
X110490000Y-121920000D03*
%TO.P,J1,3,Pin_3*%
%TO.N,unconnected-(J1-Pin_3-Pad3)*%
X113030000Y-121920000D03*
%TO.P,J1,4,Pin_4*%
%TO.N,Net-(J1-Pin_4)*%
X115570000Y-121920000D03*
%TO.P,J1,5,Pin_5*%
%TO.N,Net-(J1-Pin_5)*%
X118110000Y-121920000D03*
%TO.P,J1,6,Pin_6*%
%TO.N,Net-(J1-Pin_6)*%
X120650000Y-121920000D03*
%TO.P,J1,7,Pin_7*%
%TO.N,unconnected-(J1-Pin_7-Pad7)*%
X123190000Y-121920000D03*
%TO.P,J1,8,Pin_8*%
%TO.N,unconnected-(J1-Pin_8-Pad8)*%
X125730000Y-121920000D03*
%TO.P,J1,9,Pin_9*%
%TO.N,unconnected-(J1-Pin_9-Pad9)*%
X128270000Y-121920000D03*
%TO.P,J1,10,Pin_10*%
%TO.N,unconnected-(J1-Pin_10-Pad10)*%
X130810000Y-121920000D03*
%TO.P,J1,11,Pin_11*%
%TO.N,unconnected-(J1-Pin_11-Pad11)*%
X133350000Y-121920000D03*
%TO.P,J1,12,Pin_12*%
%TO.N,unconnected-(J1-Pin_12-Pad12)*%
X135890000Y-121920000D03*
%TO.P,J1,13,Pin_13*%
%TO.N,unconnected-(J1-Pin_13-Pad13)*%
X138430000Y-121920000D03*
%TO.P,J1,14,Pin_14*%
%TO.N,Net-(J1-Pin_14)*%
X140970000Y-121920000D03*
%TO.P,J1,15,Pin_15*%
%TO.N,Net-(J1-Pin_15)*%
X143510000Y-121920000D03*
%TO.P,J1,16,Pin_16*%
%TO.N,unconnected-(J1-Pin_16-Pad16)*%
X146050000Y-121920000D03*
%TD*%
D14*
%TO.P,R2,1*%
%TO.N,Net-(J1-Pin_5)*%
X109412500Y-128270000D03*
%TO.P,R2,2*%
%TO.N,Net-(J2-Pin_12)*%
X106487500Y-128270000D03*
%TD*%
D15*
%TO.P,R1,1*%
%TO.N,Net-(J1-Pin_5)*%
X115032500Y-128270000D03*
%TO.P,R1,2*%
%TO.N,Net-(J1-Pin_4)*%
X117957500Y-128270000D03*
%TD*%
D10*
%TO.P,J4,1,Pin_1*%
%TO.N,Net-(J1-Pin_2)*%
X154940000Y-124470000D03*
D11*
%TO.P,J4,2,Pin_2*%
%TO.N,Net-(J1-Pin_4)*%
X154940000Y-127010000D03*
%TO.P,J4,3,Pin_3*%
%TO.N,Net-(J3-Pin_4)*%
X154940000Y-129550000D03*
%TO.P,J4,4,Pin_4*%
%TO.N,unconnected-(J4-Pin_4-Pad4)*%
X154940000Y-132090000D03*
%TD*%
D12*
%TO.P,J3,1,Pin_1*%
%TO.N,Net-(J1-Pin_15)*%
X144660000Y-129540000D03*
D13*
%TO.P,J3,2,Pin_2*%
%TO.N,Net-(J1-Pin_14)*%
X142160000Y-129540000D03*
%TO.P,J3,3,Pin_3*%
%TO.N,Net-(J1-Pin_4)*%
X139660000Y-129540000D03*
%TO.P,J3,4,Pin_4*%
%TO.N,Net-(J3-Pin_4)*%
X137160000Y-129540000D03*
%TD*%
D16*
%TO.P,J6,1,Pin_1*%
%TO.N,Net-(J1-Pin_4)*%
X157480000Y-105490000D03*
D17*
%TO.P,J6,2,Pin_2*%
X157480000Y-107990000D03*
%TO.P,J6,3,Pin_3*%
X157480000Y-110490000D03*
%TO.P,J6,4,Pin_4*%
%TO.N,Net-(J2-Pin_11)*%
X157480000Y-112990000D03*
%TO.P,J6,5,Pin_5*%
%TO.N,Net-(J2-Pin_6)*%
X157480000Y-115490000D03*
%TO.P,J6,6,Pin_6*%
%TO.N,Net-(J2-Pin_5)*%
X157480000Y-117990000D03*
%TD*%
D18*
%TO.N,Net-(J1-Pin_4)*%
X120650000Y-128270000D03*
%TD*%
D19*
%TO.N,Net-(J1-Pin_4)*%
X117957500Y-128270000D02*
X120650000Y-128270000D01*
%TO.N,Net-(J1-Pin_5)*%
X118110000Y-121920000D02*
X113030000Y-127000000D01*
X113030000Y-128270000D02*
X115032500Y-128270000D01*
X113030000Y-127000000D02*
X113030000Y-128270000D01*
X109412500Y-128270000D02*
X113030000Y-128270000D01*
%TO.N,Net-(J2-Pin_12)*%
X104140000Y-113030000D02*
X104140000Y-125922500D01*
X104140000Y-125922500D02*
X106487500Y-128270000D01*
X115570000Y-101600000D02*
X104140000Y-113030000D01*
X118110000Y-101600000D02*
X115570000Y-101600000D01*
%TO.N,Net-(J1-Pin_2)*%
X124540000Y-133270000D02*
X124540000Y-129540000D01*
X151140000Y-124470000D02*
X151130000Y-124460000D01*
X148590000Y-127000000D02*
X148590000Y-133350000D01*
X151130000Y-124460000D02*
X148590000Y-127000000D01*
X124460000Y-133350000D02*
X124540000Y-133270000D01*
X154940000Y-124470000D02*
X151140000Y-124470000D01*
X148590000Y-133350000D02*
X124460000Y-133350000D01*
%TO.N,Net-(J1-Pin_6)*%
X129540000Y-129540000D02*
X125730000Y-125730000D01*
X125730000Y-125730000D02*
X120650000Y-125730000D01*
X120650000Y-125730000D02*
X120650000Y-121920000D01*
%TO.N,Net-(J1-Pin_14)*%
X142160000Y-129540000D02*
X142160000Y-125810000D01*
X140970000Y-125730000D02*
X140970000Y-121920000D01*
X142240000Y-125730000D02*
X140970000Y-125730000D01*
X142160000Y-125810000D02*
X142240000Y-125730000D01*
%TO.N,Net-(J1-Pin_15)*%
X144780000Y-129420000D02*
X144780000Y-124460000D01*
X144660000Y-129540000D02*
X144780000Y-129420000D01*
X143510000Y-124460000D02*
X143510000Y-121920000D01*
X144780000Y-124460000D02*
X143510000Y-124460000D01*
%TO.N,Net-(J2-Pin_5)*%
X161290000Y-114180000D02*
X161290000Y-101600000D01*
X152400000Y-101600000D02*
X148590000Y-105410000D01*
X161290000Y-101600000D02*
X152400000Y-101600000D01*
X148590000Y-105410000D02*
X139700000Y-105410000D01*
X139700000Y-105410000D02*
X135890000Y-101600000D01*
X157480000Y-117990000D02*
X161290000Y-114180000D01*
%TO.N,Net-(J2-Pin_11)*%
X120650000Y-105410000D02*
X128230000Y-112990000D01*
X128230000Y-112990000D02*
X157480000Y-112990000D01*
X120650000Y-101600000D02*
X120650000Y-105410000D01*
%TD*%
M02*
